<?xml version="1.0" encoding="UTF-8" standalone="no"?>
<!DOCTYPE svg PUBLIC "-//W3C//DTD SVG 1.1//EN" "http://www.w3.org/Graphics/SVG/1.1/DTD/svg11.dtd">
<svg width="100%" height="100%" viewBox="0 0 100 100" version="1.1" xmlns="http://www.w3.org/2000/svg" xmlns:xlink="http://www.w3.org/1999/xlink" xml:space="preserve" xmlns:serif="http://www.serif.com/" style="fill-rule:evenodd;clip-rule:evenodd;stroke-linejoin:round;stroke-miterlimit:2;">
    <g transform="matrix(1,0,0,1,-24613.647556,-8169.224252)">
        <g id="Mesa-de-trabajo7" serif:id="Mesa de trabajo7" transform="matrix(0.126773,0,0,0.126773,23935.683955,7133.619509)">
            <rect x="5347.875" y="8169" width="788.814" height="788.814" style="fill:none;"/>
            <g transform="matrix(1.163034,0.432554,-2.700494,7.260979,25045.992665,-90144.952853)">
                <g transform="matrix(5.278015,0,0,0.845411,13292.995826,12833.117924)">
                    <path d="M0,-52.861C-9.722,-62.886 -21.995,-72.547 -36.061,-66.137C-42.608,-63.099 -47.848,-57.98 -52.861,-52.861C-62.886,-43.139 -72.547,-30.866 -66.137,-16.8C-63.099,-10.253 -57.98,-5.013 -52.861,-0C-43.139,10.025 -30.866,19.686 -16.8,13.276C-10.253,10.238 -5.013,5.119 0,-0C10.025,-9.722 19.686,-21.995 13.276,-36.061C10.299,-42.608 5.119,-47.848 0,-52.861" style="fill:rgb(180,222,110);fill-rule:nonzero;"/>
                </g>
                <g transform="matrix(5.278015,0,0,0.845411,13265.015486,12819.184451)">
                    <path d="M0,11.18C-8.997,20.083 -20.468,26.07 -32.917,28.36C-26.4,31.93 -19.246,33.281 -11.499,29.757C-4.952,26.719 0.289,21.6 5.301,16.481C15.327,6.76 24.987,-5.514 18.577,-19.58C18.181,-20.442 17.74,-21.284 17.256,-22.101C15.003,-9.517 8.986,2.087 0,11.18" style="fill:rgb(100,140,44);fill-rule:nonzero;"/>
                </g>
                <g transform="matrix(-3.73212,0.597796,3.73212,0.597796,13313.424099,12801.420504)">
                    <path d="M3.416,-8.246C-0.762,-8.246 -4.149,-6.083 -4.149,-3.415C-4.149,-0.748 -0.762,1.415 3.416,1.415C7.593,1.415 10.98,-0.748 10.98,-3.415C10.98,-6.083 7.593,-8.246 3.416,-8.246" style="fill:rgb(100,140,44);fill-rule:nonzero;"/>
                </g>
                <g transform="matrix(-3.73212,0.597796,3.73212,0.597796,13120.528495,12832.31267)">
                    <path d="M3.416,-8.246C-0.762,-8.246 -4.149,-6.083 -4.149,-3.415C-4.149,-0.748 -0.762,1.415 3.416,1.415C7.593,1.415 10.98,-0.748 10.98,-3.415C10.98,-6.083 7.593,-8.246 3.416,-8.246" style="fill:rgb(100,140,44);fill-rule:nonzero;"/>
                </g>
                <g transform="matrix(5.278015,0,0,0.845411,13142.832085,12829.559927)">
                    <rect x="0" y="0" width="0.001" height="0.001" style="fill:rgb(26,26,26);"/>
                </g>
                <g transform="matrix(5.278015,0,0,0.845411,13292.594697,12834.210364)">
                    <path d="M0,-29.029C-0.763,-30.332 -2.438,-30.77 -3.741,-30.007C-3.873,-29.93 -3.999,-29.841 -4.116,-29.743C-4.633,-25.004 -7.701,-19.11 -12.744,-14.128C-17.787,-9.145 -23.62,-6.016 -28.36,-5.5C-29.33,-4.343 -29.178,-2.618 -28.021,-1.648C-27.904,-1.549 -27.778,-1.461 -27.646,-1.383C-23.758,0.854 -19.24,1.741 -14.795,1.138C-3.716,-0.385 4.029,-10.601 2.506,-21.68C2.151,-24.263 1.3,-26.753 0,-29.014L0,-29.029Z" style="fill:rgb(56,53,23);fill-rule:nonzero;"/>
                </g>
                <g transform="matrix(-2.638886,0.732159,4.570965,0.422686,13035.098472,12809.133067)">
                    <path d="M3.289,-5.697C-0.21,-5.697 -3.045,-3.996 -3.046,-1.899C-3.045,0.198 -0.209,1.899 3.289,1.897C6.787,1.898 9.623,0.198 9.623,-1.899C9.623,-3.997 6.787,-5.697 3.289,-5.697" style="fill:rgb(100,140,44);fill-rule:nonzero;"/>
                </g>
                <g transform="matrix(-4.570965,0.422686,2.638886,0.732159,13138.568672,12785.492406)">
                    <path d="M1.899,-7.087C-1.599,-7.087 -4.435,-5.387 -4.435,-3.289C-4.435,-1.192 -1.599,0.508 1.899,0.507C5.397,0.509 8.233,-1.192 8.234,-3.289C8.233,-5.386 5.398,-7.087 1.899,-7.087" style="fill:rgb(100,140,44);fill-rule:nonzero;"/>
                </g>
                <g transform="matrix(5.278015,0,0,0.845411,13258.441191,12837.363409)">
                    <path d="M0,-26.394L-14.825,-11.569L-7.428,-4.11C-3.317,0 3.348,0 7.458,-4.11C11.569,-8.221 11.569,-14.886 7.458,-18.997L0.061,-26.394L0,-26.394Z" style="fill:rgb(255,96,138);fill-rule:nonzero;"/>
                </g>
                <g transform="matrix(5.278015,0,0,0.845411,13284.81807,12826.446532)">
                    <path d="M0,6.342C-3.373,9.791 -8.624,10.584 -12.866,8.286L-12.425,8.742C-8.331,12.853 -1.68,12.866 2.43,8.772C6.541,4.678 6.555,-1.973 2.461,-6.083L2.005,-6.524C4.288,-2.269 3.469,2.984 0,6.342" style="fill:rgb(238,69,114);fill-rule:nonzero;"/>
                </g>
                <g transform="matrix(-3.73212,0.597796,3.73212,0.597796,13250.422054,12823.362128)">
                    <path d="M2.456,-5.878C3.004,-5.889 3.541,-5.867 4.056,-5.847C3.744,-1.238 3.165,1.855 2.456,1.877C1.747,1.898 1.221,-1.185 0.856,-5.847C1.371,-5.867 1.962,-5.835 2.456,-5.878" style="fill:rgb(238,69,114);fill-rule:nonzero;"/>
                </g>
                <g transform="matrix(3.73212,0.597796,3.73212,-0.597796,13116.331755,12819.313122)">
                    <path d="M12.121,-5.021C15.108,-1.305 17.105,5.033 17.062,12.122C17.02,19.211 15.108,25.548 12.121,29.264C11.627,23.893 11.359,18.126 11.37,12.122C11.38,6.117 11.627,0.35 12.121,-5.021" style="fill:white;fill-rule:nonzero;"/>
                </g>
                <g transform="matrix(-5.278015,0,0,0.845411,13193.902155,12811.582176)">
                    <path d="M0,-29.043C-8.02,-29.043 -14.522,-22.541 -14.522,-14.521C-14.522,-6.501 -8.02,0 0,0C8.02,0 14.522,-6.501 14.522,-14.521C14.522,-22.541 8.02,-29.043 0,-29.043" style="fill:white;fill-rule:nonzero;"/>
                </g>
                <g transform="matrix(-5.278015,0,0,0.845411,13205.286833,12806.445459)">
                    <path d="M0,-16.891C-4.664,-16.891 -8.446,-13.11 -8.446,-8.445C-8.446,-3.781 -4.664,0 0,0C4.664,0 8.446,-3.781 8.446,-8.445C8.446,-13.11 4.664,-16.891 0,-16.891" style="fill:rgb(56,53,23);fill-rule:nonzero;"/>
                </g>
                <g transform="matrix(-5.278015,0,0,0.845411,13080.217413,12829.80442)">
                    <path d="M0,-20.263C-5.596,-20.263 -10.132,-15.727 -10.132,-10.131C-10.132,-4.536 -5.596,0 0,0C5.596,0 10.132,-4.536 10.132,-10.131C10.132,-15.727 5.596,-20.263 0,-20.263" style="fill:white;fill-rule:nonzero;"/>
                </g>
                <g transform="matrix(-5.278015,0,0,0.845411,13072.285612,12826.209056)">
                    <path d="M0.001,-11.757C-3.246,-11.757 -5.878,-9.125 -5.878,-5.879C-5.878,-2.632 -3.246,0 0.001,0C3.248,0 5.879,-2.632 5.879,-5.879C5.879,-9.125 3.248,-11.757 0.001,-11.757" style="fill:rgb(56,53,23);fill-rule:nonzero;"/>
                </g>
            </g>
        </g>
    </g>
</svg>
