<?xml version="1.0" encoding="UTF-8" standalone="no"?>
<!DOCTYPE svg PUBLIC "-//W3C//DTD SVG 1.1//EN" "http://www.w3.org/Graphics/SVG/1.1/DTD/svg11.dtd">
<svg width="100%" height="100%" viewBox="0 0 100 100" version="1.1" xmlns="http://www.w3.org/2000/svg" xmlns:xlink="http://www.w3.org/1999/xlink" xml:space="preserve" xmlns:serif="http://www.serif.com/" style="fill-rule:evenodd;clip-rule:evenodd;stroke-linejoin:round;stroke-miterlimit:2;">
    <g transform="matrix(1,0,0,1,-24496.406028,-8169.224252)">
        <g id="Mesa-de-trabajo7" serif:id="Mesa de trabajo7" transform="matrix(0.126773,0,0,0.126773,23818.442428,7133.619509)">
            <rect x="5347.875" y="8169" width="788.814" height="788.814" style="fill:none;"/>
            <g transform="matrix(2.072717,-0.137748,0.859976,12.940252,-31183.76929,-150761.942204)">
                <g transform="matrix(-2.411193,0.078028,0.48714,0.386215,12666.883148,12456.17044)">
                    <path d="M0,-67.375C-8.767,-67.375 -15.873,-52.292 -15.873,-33.687C-15.873,-15.082 -8.767,0 0,0C8.767,0 15.873,-15.082 15.873,-33.687C15.873,-52.292 8.767,-67.375 0,-67.375" style="fill:rgb(100,140,44);fill-rule:nonzero;"/>
                </g>
                <g transform="matrix(-2.411193,0.078028,0.48714,0.386215,12658.812161,12449.77159)">
                    <path d="M0,-30.153C-4.107,-30.153 -7.436,-23.403 -7.436,-15.076C-7.436,-6.75 -4.107,0 0,0C4.107,0 7.436,-6.75 7.436,-15.076C7.436,-23.403 4.107,-30.153 0,-30.153" style="fill:rgb(56,53,23);fill-rule:nonzero;"/>
                </g>
                <g transform="matrix(2.411193,-0.078028,0.48714,0.386215,12816.526454,12463.071406)">
                    <path d="M0,-53.545C0.013,-54.955 -1.119,-56.109 -2.53,-56.122C-3.307,-56.13 -4.045,-55.782 -4.535,-55.179L-16.486,-40.491L-35.036,-42.534L-53.014,-52.258C-54.82,-53.224 -56.989,-53.224 -58.795,-52.258L-77.181,-42.513L-95.731,-40.47L-107.764,-55.22C-108.671,-56.315 -110.294,-56.466 -111.388,-55.559C-111.976,-55.072 -112.317,-54.349 -112.32,-53.586C-112.626,-32.605 -109.848,-9.275 -88.111,-1.144C-77.999,2.656 -66.905,2.717 -56.16,2.615C-35.22,2.921 -11.89,0.143 -3.759,-21.594C0.041,-31.706 0.102,-42.799 0,-53.545" style="fill:rgb(180,222,110);fill-rule:nonzero;"/>
                </g>
                <g transform="matrix(2.411193,-0.078028,0.48714,0.386215,12674.217724,12461.985449)">
                    <path d="M0,5.557C-18.986,5.418 -37.493,-0.426 -53.116,-11.215C-50.092,-0.572 -43.882,8.56 -31.951,13.014C-21.839,16.813 -10.746,16.875 0,16.773C20.94,17.079 44.27,14.301 52.401,-7.436C52.912,-8.784 53.341,-10.173 53.729,-11.522C37.963,-0.516 19.226,5.44 0,5.557" style="fill:rgb(100,140,44);fill-rule:nonzero;"/>
                </g>
                <g transform="matrix(-2.411193,0.078028,0.48714,0.386215,12766.575395,12457.978627)">
                    <path d="M0,-14.505C-6.273,-14.505 -11.359,-11.258 -11.359,-7.253C-11.359,-3.247 -6.273,0 0,0C6.273,0 11.359,-3.247 11.359,-7.253C11.359,-11.258 6.273,-14.505 0,-14.505" style="fill:rgb(100,140,44);fill-rule:nonzero;"/>
                </g>
                <g transform="matrix(-2.411193,0.078028,0.48714,0.386215,12579.392591,12464.036014)">
                    <path d="M0,-14.505C-6.273,-14.505 -11.359,-11.258 -11.359,-7.253C-11.359,-3.247 -6.273,0 0,0C6.273,0 11.359,-3.247 11.359,-7.253C11.359,-11.258 6.273,-14.505 0,-14.505" style="fill:rgb(100,140,44);fill-rule:nonzero;"/>
                </g>
                <g transform="matrix(-2.411193,0.078028,0.48714,0.386215,12726.894591,12457.00441)">
                    <path d="M0,-36.446C-10.064,-36.446 -18.223,-28.287 -18.223,-18.223C-18.223,-8.159 -10.064,0 0,0C10.064,0 18.223,-8.159 18.223,-18.223C18.223,-28.287 10.064,-36.446 0,-36.446" style="fill:white;fill-rule:nonzero;"/>
                </g>
                <g transform="matrix(-2.411193,0.078028,0.48714,0.386215,12613.599647,12460.670726)">
                    <path d="M0,-36.446C-10.064,-36.446 -18.223,-28.287 -18.223,-18.223C-18.223,-8.159 -10.064,0 0,0C10.064,0 18.223,-8.159 18.223,-18.223C18.223,-28.287 10.064,-36.446 0,-36.446" style="fill:white;fill-rule:nonzero;"/>
                </g>
                <g transform="matrix(-2.411193,0.078028,0.48714,0.386215,12714.771537,12452.108121)">
                    <path d="M0,-14.219C-3.926,-14.219 -7.109,-11.036 -7.109,-7.11C-7.109,-3.183 -3.926,0 0,0C3.926,0 7.109,-3.183 7.109,-7.11C7.109,-11.036 3.926,-14.219 0,-14.219" style="fill:rgb(56,53,23);fill-rule:nonzero;"/>
                </g>
                <g transform="matrix(-2.411193,0.078028,0.48714,0.386215,12612.904681,12455.404615)">
                    <path d="M0,-14.219C-3.926,-14.219 -7.109,-11.036 -7.109,-7.11C-7.109,-3.183 -3.926,0 0,0C3.926,0 7.109,-3.183 7.109,-7.11C7.109,-11.036 3.926,-14.219 0,-14.219" style="fill:rgb(56,53,23);fill-rule:nonzero;"/>
                </g>
                <g transform="matrix(2.411193,-0.078028,0.48714,0.386215,12696.968116,12457.422546)">
                    <path d="M0,14.811C0.227,13.979 0.343,13.12 0.347,12.257C0.347,5.802 -4.883,-0.266 -11.359,-0.266C-17.835,-0.266 -23.065,5.863 -23.065,12.257C-23.06,13.216 -22.901,14.168 -22.595,15.077C-15.629,11.057 -7.079,10.933 0,14.75L0,14.811Z" style="fill:rgb(56,53,23);fill-rule:nonzero;"/>
                </g>
                <g transform="matrix(2.411193,-0.078028,0.48714,0.386215,12674.947363,12462.563922)">
                    <path d="M0,10.188C5.516,10.188 10.215,8.411 11.359,3.855C4.301,0 -4.249,0.078 -11.236,4.059C-9.867,8.411 -5.373,10.188 0,10.188" style="fill:rgb(198,45,67);fill-rule:nonzero;"/>
                </g>
                <g transform="matrix(2.411193,-0.078028,0.48714,0.386215,12766.786986,12438.188569)">
                    <path d="M0,-19.673L0,-19.407C0,-14.28 -7.13,-12.032 -15.955,-12.032C-19.785,-11.904 -23.604,-12.5 -27.212,-13.789C-26.688,-12.632 -26.403,-11.382 -26.374,-10.112C-26.374,-7.232 -33.054,-6.026 -41.349,-6.026C-49.643,-6.026 -56.344,-7.313 -56.344,-10.276C-56.344,-11.971 -52.666,-14.893 -47.968,-17.078C-50.075,-16.522 -52.244,-16.234 -54.423,-16.22C-58.628,-16.211 -62.768,-17.265 -66.456,-19.285C-68.167,-12.91 -74.722,-9.129 -81.097,-10.841C-86.314,-12.241 -89.944,-16.967 -89.95,-22.37C-89.935,-23.055 -89.867,-23.738 -89.745,-24.413C-91.762,-22.348 -92.891,-19.576 -92.891,-16.69C-92.878,-16.129 -92.824,-15.569 -92.728,-15.015C-99.061,-13.462 -103.269,-10.745 -103.269,-7.64C-103.269,-2.798 -93.055,-1.021 -80.43,-1.021C-77.202,-1.021 -74.117,-1.144 -71.339,-1.389C-68.233,3.024 -56.282,4.74 -41.982,4.74C-26.292,4.74 -13.381,0.654 -11.951,-4.78C-1.736,-6.537 5.577,-8.457 5.577,-13.074C5.577,-15.526 3.514,-17.814 0,-19.673" style="fill:rgb(56,53,23);fill-rule:nonzero;"/>
                </g>
                <g transform="matrix(2.411193,-0.078028,0.48714,0.386215,12558.505106,12428.209173)">
                    <path d="M0,31.195C5.386,31.192 10.104,27.586 11.522,22.39C15.211,24.409 19.35,25.464 23.555,25.454C25.734,25.441 27.903,25.153 30.01,24.596C25.312,26.782 21.634,29.704 21.634,31.399C21.634,34.362 28.356,35.649 36.629,35.649C44.903,35.649 51.604,34.362 51.604,31.481C51.564,30.239 51.28,29.017 50.766,27.885C54.374,29.175 58.194,29.771 62.023,29.642C70.848,29.642 77.978,27.395 77.978,22.268L77.978,22.002C71.663,19.108 64.821,17.543 57.876,17.405C58.148,16.268 58.286,15.102 58.284,13.932C58.346,5.583 51.627,-1.235 43.278,-1.296C38.54,-1.331 34.06,0.858 31.175,4.617C26.362,-2.548 16.652,-4.454 9.487,0.359C5.152,3.272 2.558,8.158 2.574,13.381C2.575,14.328 2.671,15.272 2.86,16.2C-1.543,12.768 -7.822,13.19 -11.726,17.181C-11.848,17.855 -11.916,18.538 -11.931,19.224C-11.931,25.819 -6.596,31.173 0,31.195" style="fill:rgb(100,140,44);fill-rule:nonzero;"/>
                </g>
                <g transform="matrix(2.411193,-0.078028,0.48714,0.386215,12756.657138,12428.368893)">
                    <path d="M0,-5.42C-4.088,-8.901 -9.02,-11.247 -14.3,-12.223C-15.417,-12.387 -16.454,-11.614 -16.618,-10.498C-16.642,-10.332 -16.646,-10.163 -16.629,-9.996L-15.015,5.019C-14.909,6.143 -13.913,6.967 -12.789,6.861C-12.419,6.826 -12.066,6.691 -11.767,6.47L0,-2.213C0.886,-2.912 1.037,-4.196 0.338,-5.082C0.239,-5.207 0.126,-5.321 0,-5.42" style="fill:rgb(180,222,110);fill-rule:nonzero;"/>
                </g>
                <g transform="matrix(2.411193,-0.078028,0.48714,0.386215,12570.390174,12445.436201)">
                    <path d="M0,-18.46C-4.561,-13.845 -7.763,-8.064 -9.254,-1.749C-9.537,-0.657 -8.881,0.458 -7.788,0.741C-7.6,0.789 -7.406,0.811 -7.211,0.805L11.175,0.008C12.302,-0.049 13.169,-1.009 13.111,-2.136C13.093,-2.493 12.982,-2.838 12.789,-3.138L3.064,-18.092C2.432,-19.027 1.162,-19.271 0.227,-18.639C0.147,-18.585 0.071,-18.525 0,-18.46" style="fill:rgb(180,222,110);fill-rule:nonzero;"/>
                </g>
            </g>
        </g>
    </g>
</svg>
