<?xml version="1.0" encoding="UTF-8" standalone="no"?>
<!DOCTYPE svg PUBLIC "-//W3C//DTD SVG 1.1//EN" "http://www.w3.org/Graphics/SVG/1.1/DTD/svg11.dtd">
<svg width="100%" height="100%" viewBox="0 0 100 100" version="1.1" xmlns="http://www.w3.org/2000/svg" xmlns:xlink="http://www.w3.org/1999/xlink" xml:space="preserve" xmlns:serif="http://www.serif.com/" style="fill-rule:evenodd;clip-rule:evenodd;stroke-linejoin:round;stroke-miterlimit:2;">
    <g transform="matrix(1,0,0,1,-24384.698024,-8280.586411)">
        <g id="Mesa-de-trabajo7" serif:id="Mesa de trabajo7" transform="matrix(0.126773,0,0,0.126773,23706.734423,7244.981668)">
            <rect x="5347.875" y="8169" width="788.814" height="788.814" style="fill:none;"/>
            <g transform="matrix(1.492768,0.260237,-1.624692,9.319548,10732.737495,-112398.238022)">
                <g transform="matrix(3.443866,0.061746,-0.385491,0.551625,10652.764922,12690.479233)">
                    <path d="M0,0C0.297,-20.301 -2.396,-42.918 -23.469,-50.801C-33.273,-54.485 -44.028,-54.544 -54.445,-54.445C-74.746,-54.742 -97.364,-52.049 -105.246,-30.976C-108.93,-21.172 -108.989,-10.418 -108.89,0C-109.187,20.301 -106.494,42.918 -85.421,50.801C-75.617,54.485 -64.863,54.544 -54.445,54.445C-34.145,54.742 -11.527,52.049 -3.644,30.976C0.04,21.172 0.099,10.418 0,0" style="fill:rgb(180,222,110);fill-rule:nonzero;"/>
                </g>
                <g transform="matrix(3.443866,0.061746,-0.385491,0.551625,10450.542985,12708.181225)">
                    <path d="M0,5.387C-18.407,5.252 -36.348,-0.413 -51.494,-10.873C-48.563,-0.555 -42.542,8.298 -30.976,12.616C-21.172,16.3 -10.418,16.359 0,16.26C20.301,16.557 42.918,13.864 50.801,-7.209C51.296,-8.516 51.712,-9.863 52.088,-11.17C36.804,-0.501 18.639,5.273 0,5.387" style="fill:rgb(100,140,44);fill-rule:nonzero;"/>
                </g>
                <g transform="matrix(-3.443866,-0.061746,-0.385491,0.551625,10586.428096,12701.502472)">
                    <path d="M0,-14.062C-6.082,-14.062 -11.012,-10.914 -11.012,-7.031C-11.012,-3.148 -6.082,0 0,0C6.082,0 11.012,-3.148 11.012,-7.031C11.012,-10.914 6.082,-14.062 0,-14.062" style="fill:rgb(100,140,44);fill-rule:nonzero;"/>
                </g>
                <g transform="matrix(-3.443866,-0.061746,-0.385491,0.551625,10327.240323,12696.8554)">
                    <path d="M0,-14.062C-6.082,-14.062 -11.012,-10.914 -11.012,-7.031C-11.012,-3.148 -6.082,0 0,0C6.082,0 11.012,-3.148 11.012,-7.031C11.012,-10.914 6.082,-14.062 0,-14.062" style="fill:rgb(100,140,44);fill-rule:nonzero;"/>
                </g>
                <g transform="matrix(-0.385491,0.551625,3.443866,0.061746,10476.308222,12686.729013)">
                    <path d="M21.865,-28.044C26.202,-22.637 29.054,-13.467 29.054,-3.09C29.054,7.288 26.202,16.459 21.865,21.865C21.152,14.062 20.855,5.665 20.855,-3.09C20.855,-11.843 21.152,-20.241 21.865,-28.044" style="fill:white;fill-rule:nonzero;"/>
                </g>
                <g transform="matrix(3.443866,0.061746,-0.385491,0.551625,10447.055696,12714.456298)">
                    <path d="M0,-12.258C-6.294,-12.354 -12.511,-10.869 -18.082,-7.94C-7.479,0.096 7.194,0.031 17.726,-8.099C12.245,-10.911 6.159,-12.339 0,-12.258" style="fill:rgb(198,45,67);fill-rule:nonzero;"/>
                </g>
                <g transform="matrix(3.443866,0.061746,-0.385491,0.551625,10535.239334,12711.60243)">
                    <path d="M0,-20.776C-5.407,-16.439 -14.577,-13.587 -24.955,-13.587C-35.333,-13.587 -44.503,-16.439 -49.91,-20.776C-52.091,-20.615 -53.729,-18.715 -53.568,-16.533C-53.55,-16.301 -53.513,-16.07 -53.455,-15.844C-51.753,-9.53 -48.006,-3.958 -42.8,0C-37.236,-2.933 -31.026,-4.424 -24.737,-4.337C-18.542,-4.428 -12.421,-2.993 -6.912,-0.159C-1.82,-4.109 1.839,-9.618 3.506,-15.844C4.049,-17.963 2.772,-20.122 0.653,-20.666C0.439,-20.721 0.22,-20.758 0,-20.776" style="fill:rgb(56,53,23);fill-rule:nonzero;"/>
                </g>
                <g transform="matrix(-3.443866,-0.061746,-0.385491,0.551625,10547.176792,12696.694374)">
                    <path d="M0,-39.452C-10.894,-39.452 -19.726,-30.62 -19.726,-19.726C-19.726,-8.831 -10.894,0 0,0C10.895,0 19.726,-8.831 19.726,-19.726C19.726,-30.62 10.895,-39.452 0,-39.452" style="fill:white;fill-rule:nonzero;"/>
                </g>
                <g transform="matrix(-3.443866,-0.061746,-0.385491,0.551625,10372.157106,12693.556383)">
                    <path d="M0,-39.452C-10.894,-39.452 -19.726,-30.62 -19.726,-19.726C-19.726,-8.831 -10.894,0 0,0C10.895,0 19.726,-8.831 19.726,-19.726C19.726,-30.62 10.895,-39.452 0,-39.452" style="fill:white;fill-rule:nonzero;"/>
                </g>
                <g transform="matrix(-3.443866,-0.061746,-0.385491,0.551625,10538.941429,12693.062403)">
                    <path d="M0,-26.975C-7.449,-26.975 -13.488,-20.936 -13.488,-13.488C-13.488,-6.039 -7.449,0 0,0C7.449,0 13.488,-6.039 13.488,-13.488C13.488,-20.936 7.449,-26.975 0,-26.975" style="fill:rgb(56,53,23);fill-rule:nonzero;"/>
                </g>
                <g transform="matrix(-3.443866,-0.061746,-0.385491,0.551625,10385.202081,12690.305955)">
                    <path d="M0,-26.975C-7.449,-26.975 -13.488,-20.936 -13.488,-13.488C-13.488,-6.039 -7.449,0 0,0C7.449,0 13.488,-6.039 13.488,-13.488C13.488,-20.936 7.449,-26.975 0,-26.975" style="fill:rgb(56,53,23);fill-rule:nonzero;"/>
                </g>
                <g transform="matrix(-3.443866,-0.061746,-0.385491,0.551625,10566.771115,12682.886461)">
                    <path d="M0,-8.556C-2.363,-8.556 -4.278,-6.641 -4.278,-4.278C-4.278,-1.915 -2.363,0 0,0C2.363,0 4.278,-1.915 4.278,-4.278C4.278,-6.641 2.363,-8.556 0,-8.556" style="fill:white;fill-rule:nonzero;"/>
                </g>
                <g transform="matrix(-3.443866,-0.061746,-0.385491,0.551625,10413.031767,12680.130013)">
                    <path d="M0,-8.556C-2.363,-8.556 -4.278,-6.641 -4.278,-4.278C-4.278,-1.915 -2.363,0 0,0C2.363,0 4.278,-1.915 4.278,-4.278C4.278,-6.641 2.363,-8.556 0,-8.556" style="fill:white;fill-rule:nonzero;"/>
                </g>
                <g transform="matrix(-3.464358,-0.013442,-0.083922,0.554907,10395.580577,12666.51782)">
                    <path d="M0.481,-11.031C-4.616,-11.031 -8.748,-8.557 -8.748,-5.506C-8.748,-2.454 -4.616,0.02 0.481,0.02C5.579,0.021 9.711,-2.454 9.711,-5.505C9.711,-8.557 5.579,-11.031 0.481,-11.031" style="fill:rgb(100,140,44);fill-rule:nonzero;"/>
                </g>
                <g transform="matrix(-0.684224,0.544142,3.397154,0.109596,10576.075538,12661.632239)">
                    <path d="M9.194,-10.033C6.143,-10.033 3.668,-5.901 3.669,-0.804C3.669,4.294 6.143,8.425 9.194,8.425C12.246,8.425 14.72,4.293 14.72,-0.803C14.72,-5.901 12.246,-10.033 9.194,-10.033" style="fill:rgb(100,140,44);fill-rule:nonzero;"/>
                </g>
            </g>
        </g>
    </g>
</svg>
