<?xml version="1.0" encoding="UTF-8" standalone="no"?>
<!DOCTYPE svg PUBLIC "-//W3C//DTD SVG 1.1//EN" "http://www.w3.org/Graphics/SVG/1.1/DTD/svg11.dtd">
<svg width="100%" height="100%" viewBox="0 0 100 100" version="1.1" xmlns="http://www.w3.org/2000/svg" xmlns:xlink="http://www.w3.org/1999/xlink" xml:space="preserve" xmlns:serif="http://www.serif.com/" style="fill-rule:evenodd;clip-rule:evenodd;stroke-linejoin:round;stroke-miterlimit:2;">
    <g transform="matrix(1,0,0,1,-24384.698024,-8396.790403)">
        <g id="Mesa-de-trabajo7" serif:id="Mesa de trabajo7" transform="matrix(0.126773,0,0,0.126773,23706.734423,7361.18566)">
            <rect x="5347.875" y="8169" width="788.814" height="788.814" style="fill:none;"/>
            <g transform="matrix(0.590747,0.097128,-0.096205,0.585133,-5242.615546,1000.506285)">
                <g transform="matrix(6.434228,0,0,6.495965,20603.018455,9734.145642)">
                    <path d="M0,-22.264C-3.771,-46.204 -11.563,-72.259 -37.95,-77.257C-50.175,-79.518 -62.873,-77.318 -75.149,-75.191C-99.083,-71.391 -125.144,-63.627 -130.109,-37.217C-132.445,-24.922 -130.31,-12.27 -128.075,-0.042C-124.271,23.921 -116.512,49.953 -90.097,54.947C-77.806,57.254 -65.15,55.148 -52.922,52.913C-28.959,49.109 -2.898,41.345 2.072,14.962C4.374,2.644 2.24,-10.008 0,-22.264" style="fill:rgb(180,222,110);fill-rule:nonzero;"/>
                </g>
                <g transform="matrix(6.434228,0,0,6.495965,20247.949432,9910.533835)">
                    <path d="M0,12.869C-21.696,16.506 -43.985,13.538 -63.974,4.35C-58.28,15.95 -49.428,25.03 -34.945,27.77C-22.655,30.077 -9.999,27.971 2.23,25.736C26.192,21.932 52.253,14.168 57.223,-12.214C57.546,-13.865 57.751,-15.525 57.924,-17.208C42.115,-1.536 21.913,8.954 0,12.869" style="fill:rgb(100,140,44);fill-rule:nonzero;"/>
                </g>
                <g transform="matrix(-6.339742,1.109159,1.098618,6.400573,20513.495716,9776.552672)">
                    <path d="M1.435,-16.678C-5.825,-16.679 -11.71,-12.917 -11.71,-8.277C-11.71,-3.638 -5.825,0.124 1.435,0.124C8.694,0.124 14.579,-3.637 14.579,-8.277C14.579,-12.917 8.694,-16.678 1.435,-16.678" style="fill:rgb(100,140,44);fill-rule:nonzero;"/>
                </g>
                <g transform="matrix(-6.339742,1.109159,1.098618,6.400573,19943.746737,9876.227413)">
                    <path d="M1.435,-16.678C-5.825,-16.679 -11.71,-12.917 -11.71,-8.277C-11.71,-3.638 -5.825,0.124 1.435,0.124C8.694,0.124 14.579,-3.637 14.579,-8.277C14.579,-12.917 8.694,-16.678 1.435,-16.678" style="fill:rgb(100,140,44);fill-rule:nonzero;"/>
                </g>
                <g transform="matrix(6.434228,0,0,6.495965,20175.110108,9641.88085)">
                    <path d="M0,-62.485C-2.816,-61.997 -5.772,-61.485 -8.644,-60.987C-32.578,-57.188 -58.639,-49.424 -63.604,-23.013C-64.761,-16.278 -64.929,-9.41 -64.102,-2.626C-57.74,-0.158 -50.713,0 -44.246,-2.181L-17.447,-11.204C-8.468,-14.211 -3.627,-23.927 -6.633,-32.906C-6.845,-33.537 -7.093,-34.156 -7.376,-34.758C-7.846,-35.736 -8.405,-36.668 -9.047,-37.542L-4.334,-41.636C1.672,-46.799 3.451,-55.357 0,-62.485" style="fill:rgb(100,140,44);fill-rule:nonzero;"/>
                </g>
                <g transform="matrix(-6.339754,1.109093,1.098553,6.400584,20416.58625,9731.883139)">
                    <path d="M3.142,-36.535C-7.021,-36.535 -15.261,-28.296 -15.26,-18.133C-15.261,-7.97 -7.021,0.269 3.142,0.27C13.305,0.27 21.544,-7.97 21.544,-18.133C21.545,-28.296 13.305,-36.535 3.142,-36.535" style="fill:white;fill-rule:nonzero;"/>
                </g>
                <g transform="matrix(-6.339748,1.109123,1.098582,6.400579,20041.766593,9797.456473)">
                    <path d="M3.142,-36.535C-7.021,-36.535 -15.261,-28.296 -15.26,-18.133C-15.261,-7.97 -7.021,0.269 3.142,0.269C13.305,0.27 21.544,-7.97 21.544,-18.133C21.545,-28.296 13.305,-36.535 3.142,-36.535" style="fill:white;fill-rule:nonzero;"/>
                </g>
                <g transform="matrix(-6.339768,1.109012,1.098472,6.400598,20367.458284,9690.354001)">
                    <path d="M1.825,-21.217C-4.077,-21.217 -8.862,-16.432 -8.862,-10.53C-8.862,-4.628 -4.077,0.158 1.825,0.157C7.727,0.157 12.513,-4.627 12.513,-10.53C12.512,-16.432 7.728,-21.217 1.825,-21.217" style="fill:rgb(56,53,23);fill-rule:nonzero;"/>
                </g>
                <g transform="matrix(-6.339768,1.109012,1.098472,6.400598,20057.312398,9744.6122)">
                    <path d="M1.825,-21.217C-4.077,-21.217 -8.862,-16.432 -8.862,-10.53C-8.862,-4.628 -4.077,0.158 1.825,0.157C7.727,0.157 12.513,-4.627 12.513,-10.53C12.512,-16.432 7.728,-21.217 1.825,-21.217" style="fill:rgb(56,53,23);fill-rule:nonzero;"/>
                </g>
                <g transform="matrix(6.434228,0,0,6.495965,20094.947345,9872.418759)">
                    <path d="M0,-3.012C6.595,-1.416 13.444,-1.163 20.14,-2.268C23.411,-2.864 26.612,-3.797 29.691,-5.054C32.832,-6.38 35.867,-7.943 38.77,-9.73C39.724,-10.696 41.281,-10.706 42.247,-9.753C43.213,-8.799 43.223,-7.242 42.269,-6.276C39.912,-2.909 36.844,-0.101 33.283,1.951C29.704,4.067 25.765,5.507 21.665,6.197C13.48,7.694 5.034,5.967 -1.907,1.379C-2.999,0.626 -3.273,-0.869 -2.521,-1.96C-2.512,-1.973 -2.502,-1.987 -2.493,-2C-1.93,-2.813 -0.932,-3.204 0.033,-2.989L0,-3.012Z" style="fill:rgb(56,53,23);fill-rule:nonzero;"/>
                </g>
                <g transform="matrix(0.525799,6.474239,6.412708,-0.530844,20330.506073,9309.048193)">
                    <path d="M11.038,-10.17C7.377,-10.169 4.41,-5.211 4.41,0.905C4.41,7.022 7.377,11.98 11.038,11.98C14.698,11.979 17.664,7.021 17.665,0.905C17.665,-5.212 14.698,-10.17 11.038,-10.17" style="fill:rgb(100,140,44);fill-rule:nonzero;"/>
                </g>
                <g transform="matrix(6.434228,0,0,6.495965,19929.435832,9550.374786)">
                    <path d="M0,-66.404C2.134,-63.931 1.86,-60.196 -0.613,-58.061L5.936,-63.779C8.409,-65.913 12.144,-65.638 14.279,-63.165C16.417,-60.684 16.145,-56.94 13.67,-54.794L15.31,-56.21C17.526,-58.2 20.847,-58.324 23.205,-56.505C25.729,-54.405 26.073,-50.658 23.974,-48.134C23.767,-47.886 23.541,-47.655 23.296,-47.443L21.432,-45.815C23.89,-47.967 27.627,-47.718 29.779,-45.26C29.997,-45.012 30.194,-44.745 30.367,-44.463C31.818,-41.838 31.162,-38.55 28.815,-36.683L8.231,-18.905L17.341,-19.382C19.649,-19.57 21.843,-18.347 22.895,-16.284C24.183,-13.403 22.892,-10.023 20.01,-8.735C19.891,-8.681 19.77,-8.632 19.647,-8.587L-7.153,0.436C-14.095,2.759 -21.754,0.647 -26.523,-4.908L-34.874,-14.771C-39.999,-20.681 -40.706,-29.229 -36.621,-35.9L-36.351,-36.353C-30.776,-45.487 -23.814,-53.699 -15.715,-60.694L-8.399,-67.008C-5.944,-69.163 -2.206,-68.919 -0.051,-66.463C-0.034,-66.444 -0.017,-66.424 0,-66.404" style="fill:rgb(56,53,23);fill-rule:nonzero;"/>
                </g>
            </g>
        </g>
    </g>
</svg>
