<?xml version="1.0" encoding="UTF-8" standalone="no"?>
<!DOCTYPE svg PUBLIC "-//W3C//DTD SVG 1.1//EN" "http://www.w3.org/Graphics/SVG/1.1/DTD/svg11.dtd">
<svg width="100%" height="100%" viewBox="0 0 100 100" version="1.1" xmlns="http://www.w3.org/2000/svg" xmlns:xlink="http://www.w3.org/1999/xlink" xml:space="preserve" xmlns:serif="http://www.serif.com/" style="fill-rule:evenodd;clip-rule:evenodd;stroke-linejoin:round;stroke-miterlimit:2;">
    <g transform="matrix(1,0,0,1,-24496.406028,-8280.586411)">
        <g id="Mesa-de-trabajo7" serif:id="Mesa de trabajo7" transform="matrix(0.126773,0,0,0.126773,23818.442428,7244.981668)">
            <rect x="5347.875" y="8169" width="788.814" height="788.814" style="fill:none;"/>
            <g transform="matrix(1.601154,0,0,10.565907,-11328.297282,-126863.1716)">
                <g transform="matrix(4.199901,-0.07659,0.505415,0.636452,10841.41283,12812.821309)">
                    <path d="M0,-0.016C0.237,-16.036 -1.88,-33.873 -18.516,-40.098C-26.258,-42.989 -34.726,-43.036 -42.957,-42.973C-58.977,-43.194 -76.814,-41.093 -83.039,-24.457C-85.93,-16.715 -85.993,-8.231 -85.914,-0.016C-86.151,16.004 -84.034,33.857 -67.398,40.066C-59.656,42.973 -51.188,43.02 -42.957,42.941C-26.937,43.178 -9.1,41.061 -2.875,24.441C0.016,16.699 0.079,8.215 0,-0.016" style="fill:rgb(180,222,110);fill-rule:nonzero;"/>
                </g>
                <g transform="matrix(4.199901,-0.07659,0.505415,0.636452,10676.232461,12835.296549)">
                    <path d="M0,4.171C-14.539,4.093 -28.719,-0.355 -40.698,-8.594C-38.312,-0.411 -33.573,6.509 -24.441,9.922C-16.699,12.829 -8.231,12.876 0,12.797C16.02,13.034 33.857,10.917 40.082,-5.703C40.473,-6.738 40.81,-7.793 41.093,-8.863C29.035,-0.449 14.703,4.097 0,4.171" style="fill:rgb(100,140,44);fill-rule:nonzero;"/>
                </g>
                <g transform="matrix(-2.612396,0.504197,3.327161,0.395882,10798.032107,12804.880454)">
                    <path d="M11.037,-26.646C3.559,-26.646 -2.503,-19.657 -2.503,-11.037C-2.503,-2.416 3.559,4.572 11.037,4.573C18.515,4.572 24.577,-2.416 24.577,-11.037C24.577,-19.657 18.515,-26.646 11.037,-26.646" style="fill:white;fill-rule:nonzero;"/>
                </g>
                <g transform="matrix(-2.612396,0.504197,3.327161,0.395882,10632.771669,12807.90245)">
                    <path d="M9.574,-23.114C0.953,-23.114 -6.035,-17.052 -6.035,-9.574C-6.035,-2.096 0.953,3.966 9.574,3.966C18.195,3.966 25.183,-2.096 25.183,-9.574C25.183,-17.052 18.195,-23.114 9.574,-23.114" style="fill:white;fill-rule:nonzero;"/>
                </g>
                <g transform="matrix(4.199901,-0.07659,0.505415,0.636452,10732.01523,12815.265051)">
                    <path d="M0,43.194C-1.744,43.128 -3.104,41.662 -3.039,39.918C-3.032,39.734 -3.009,39.551 -2.97,39.371C-0.521,28.849 7.852,-0.221 24.204,6.351C29.054,8.294 22.877,22.039 22.403,36.953C22.371,38.09 21.732,39.121 20.728,39.655C17.932,41.061 11.612,43.415 0,43.194" style="fill:rgb(56,53,23);fill-rule:nonzero;"/>
                </g>
                <g transform="matrix(4.199901,-0.07659,0.505415,0.636452,10592.340814,12817.812189)">
                    <path d="M0,43.194C1.744,43.128 3.104,41.662 3.039,39.918C3.032,39.734 3.009,39.551 2.97,39.371C0.521,28.849 -7.852,-0.221 -24.204,6.351C-29.054,8.294 -22.877,22.039 -22.403,36.953C-22.371,38.09 -21.732,39.121 -20.728,39.655C-17.995,41.061 -11.612,43.415 0,43.194" style="fill:rgb(56,53,23);fill-rule:nonzero;"/>
                </g>
                <g transform="matrix(4.199901,-0.07659,0.505415,0.636452,10706.295225,12817.376669)">
                    <path d="M0,18.5C0.284,17.331 0.428,16.132 0.427,14.929C0.427,7.567 -4.424,0 -10.396,0C-16.368,0 -21.218,7.567 -21.218,14.929C-21.219,16.132 -21.076,17.331 -20.791,18.5C-17.709,16.476 -14.081,15.445 -10.396,15.546C-6.71,15.445 -3.082,16.476 0,18.5" style="fill:rgb(56,53,23);fill-rule:nonzero;"/>
                </g>
                <g transform="matrix(4.199901,-0.07659,0.505415,0.636452,10670.493927,12828.070213)">
                    <path d="M0,11.212C4.981,11.318 9.338,7.881 10.396,3.012C7.321,0.966 3.692,-0.087 0,-0.005C-3.686,-0.106 -7.314,0.925 -10.396,2.949C-9.365,7.843 -5,11.312 0,11.212" style="fill:rgb(198,45,67);fill-rule:nonzero;"/>
                </g>
            </g>
        </g>
    </g>
</svg>
