<?xml version="1.0" encoding="UTF-8" standalone="no"?>
<!DOCTYPE svg PUBLIC "-//W3C//DTD SVG 1.1//EN" "http://www.w3.org/Graphics/SVG/1.1/DTD/svg11.dtd">
<svg width="100%" height="100%" viewBox="0 0 100 100" version="1.1" xmlns="http://www.w3.org/2000/svg" xmlns:xlink="http://www.w3.org/1999/xlink" xml:space="preserve" xmlns:serif="http://www.serif.com/" style="fill-rule:evenodd;clip-rule:evenodd;stroke-linejoin:round;stroke-miterlimit:2;">
    <g transform="matrix(1,0,0,1,-24497.855791,-8396.704459)">
        <g id="Mesa-de-trabajo7" serif:id="Mesa de trabajo7" transform="matrix(0.126773,0,0,0.126773,23819.89219,7361.099716)">
            <rect x="5347.875" y="8169" width="788.814" height="788.814" style="fill:none;"/>
            <g transform="matrix(1.47955,0.541219,-3.3789,9.237032,29020.000423,-114543.607168)">
                <g transform="matrix(3.02533,-0.195882,1.22292,0.484585,12822.243192,12582.587505)">
                    <path d="M0,-19.235C3.292,-38.729 9.857,-59.919 31.446,-63.77C41.423,-65.546 51.798,-63.77 61.775,-61.775C81.269,-58.483 102.459,-51.918 106.31,-30.329C108.086,-20.352 106.31,-9.977 104.315,-0C101.023,19.494 94.458,40.684 72.869,44.535C62.892,46.311 52.517,44.535 42.54,42.54C23.046,39.248 1.856,32.683 -1.995,11.094C-3.711,1.057 -1.935,-9.258 0,-19.235" style="fill:rgb(180,222,110);fill-rule:nonzero;"/>
                </g>
                <g transform="matrix(0.654524,0.512056,3.196835,-0.104839,12849.751656,12565.433308)">
                    <path d="M10.557,-12.68C6.766,-12.68 3.693,-7.874 3.693,-1.945C3.693,3.983 6.766,8.789 10.557,8.789C14.347,8.789 17.421,3.983 17.42,-1.946C17.42,-7.874 14.347,-12.68 10.557,-12.68" style="fill:rgb(100,140,44);fill-rule:nonzero;"/>
                </g>
                <g transform="matrix(0.654524,0.512056,3.196835,-0.104839,13084.177358,12557.763415)">
                    <path d="M10.557,-12.68C6.766,-12.68 3.693,-7.874 3.693,-1.945C3.693,3.983 6.766,8.789 10.557,8.789C14.347,8.789 17.421,3.983 17.42,-1.946C17.42,-7.874 14.347,-12.68 10.557,-12.68" style="fill:rgb(100,140,44);fill-rule:nonzero;"/>
                </g>
                <g transform="matrix(3.02533,-0.195882,1.22292,0.484585,13018.762961,12563.728332)">
                    <path d="M0,-22.3C0.845,-22.986 1.857,-23.434 2.933,-23.597C5.401,-23.987 7.898,-24.161 10.396,-24.116C12.251,-24.075 14.102,-23.935 15.943,-23.697C17.048,-23.553 18.091,-23.104 18.955,-22.4C25.395,-17.237 26.43,-7.831 21.267,-1.391C20.884,-0.913 20.472,-0.46 20.033,-0.032C18.638,1.289 16.693,1.861 14.805,1.504L0.239,-1.17C-1.645,-1.493 -3.253,-2.714 -4.07,-4.442C-5.714,-7.955 -5.922,-11.972 -4.649,-15.636C-3.758,-18.251 -2.146,-20.561 0,-22.3" style="fill:white;fill-rule:nonzero;"/>
                </g>
                <g transform="matrix(3.02533,-0.195882,1.22292,0.484585,12982.90501,12584.221186)">
                    <path d="M0,10.715C17.673,13.882 35.891,11.65 52.277,4.31C47.548,13.728 40.305,21.071 28.333,23.186C18.357,24.961 7.981,23.186 -1.995,21.19C-21.43,17.898 -42.62,11.334 -46.471,-10.256C-46.71,-11.593 -46.87,-12.949 -46.99,-14.246C-34.216,-1.358 -17.83,7.346 0,10.715" style="fill:rgb(100,140,44);fill-rule:nonzero;"/>
                </g>
                <g transform="matrix(3.02533,-0.195882,1.22292,0.484585,12876.446784,12552.834306)">
                    <path d="M0,28.433L-14.506,25.759C-16.393,25.419 -18.003,24.195 -18.836,22.467C-20.47,18.958 -20.678,14.952 -19.414,11.293C-16.488,3.54 -7.83,-0.372 -0.077,2.554C6.593,5.072 10.57,11.936 9.438,18.975C8.886,22.018 7.393,24.81 5.168,26.956C3.785,28.255 1.86,28.805 0,28.433" style="fill:white;fill-rule:nonzero;"/>
                </g>
                <g transform="matrix(-3.02533,0.195882,1.22292,0.484585,12884.500294,12565.125237)">
                    <path d="M0,-17.439C-4.816,-17.439 -8.719,-13.535 -8.719,-8.719C-8.719,-3.904 -4.816,0 0,0C4.816,0 8.719,-3.904 8.719,-8.719C8.719,-13.535 4.816,-17.439 0,-17.439" style="fill:rgb(56,53,23);fill-rule:nonzero;"/>
                </g>
                <g transform="matrix(-3.02533,0.195882,1.22292,0.484585,13036.720442,12560.128864)">
                    <path d="M0.001,-17.439C-4.815,-17.439 -8.719,-13.535 -8.719,-8.719C-8.719,-3.904 -4.815,0 0.001,0C4.817,0 8.72,-3.904 8.72,-8.719C8.72,-13.535 4.817,-17.439 0.001,-17.439" style="fill:rgb(56,53,23);fill-rule:nonzero;"/>
                </g>
                <g transform="matrix(3.02533,-0.195882,1.22292,0.484585,12834.196402,12555.377385)">
                    <path d="M0,-9.735C4.51,-12.136 9.841,-12.457 14.606,-10.613C19.463,-8.975 23.325,-5.238 25.121,-0.437C25.521,0.789 24.851,2.107 23.625,2.506C22.962,2.722 22.237,2.631 21.649,2.257L21.49,2.157C19.754,1.02 18.217,0.002 16.641,-0.876C15.09,-1.739 13.483,-2.499 11.832,-3.15C8.362,-4.405 4.737,-5.184 1.058,-5.465L0.918,-5.465C-0.354,-5.595 -1.28,-6.731 -1.15,-8.002C-1.075,-8.744 -0.646,-9.404 0,-9.775L0,-9.735Z" style="fill:rgb(100,140,44);fill-rule:nonzero;"/>
                </g>
                <g transform="matrix(3.02533,-0.195882,1.22292,0.484585,12978.408058,12548.127278)">
                    <path d="M0,1.767C3.435,-2.014 8.342,-4.118 13.448,-3.999C18.577,-4.113 23.486,-1.915 26.817,1.986C27.612,2.988 27.445,4.443 26.444,5.238C26.435,5.245 26.427,5.252 26.418,5.259C25.864,5.721 25.12,5.885 24.423,5.698L24.223,5.698C22.228,5.239 20.412,4.8 18.616,4.521C16.868,4.226 15.101,4.059 13.329,4.022C9.639,4.033 5.967,4.543 2.414,5.538L2.275,5.538C1.036,5.853 -0.224,5.103 -0.538,3.864L-0.539,3.862C-0.71,3.118 -0.509,2.337 0,1.767" style="fill:rgb(100,140,44);fill-rule:nonzero;"/>
                </g>
                <g transform="matrix(3.02533,-0.195882,1.22292,0.484585,13010.523836,12565.862214)">
                    <path d="M0,14.089C-2.353,12.678 -4.807,11.444 -7.343,10.398C-9.817,9.388 -12.392,8.645 -15.025,8.183C-17.658,7.714 -20.332,7.506 -23.006,7.564C-25.781,7.665 -28.547,7.945 -31.286,8.402C-32.527,8.597 -33.692,7.749 -33.887,6.508C-33.892,6.475 -33.897,6.441 -33.9,6.407C-34.019,5.573 -33.675,4.74 -33.002,4.232C-30.25,2.233 -27.088,0.87 -23.744,0.242C-20.363,-0.407 -16.889,-0.407 -13.508,0.242C-6.721,1.409 -0.677,5.228 3.292,10.857C3.969,11.928 3.65,13.345 2.578,14.022C1.87,14.47 0.973,14.496 0.239,14.089L0,14.089Z" style="fill:rgb(56,53,23);fill-rule:nonzero;"/>
                </g>
                <g transform="matrix(3.02533,-0.195882,1.22292,0.484585,13067.220888,12569.628033)">
                    <path d="M0,-54.552C-15.064,-54.563 -27.285,-42.36 -27.296,-27.296C-27.307,-12.232 -15.104,-0.011 -0.04,0C15.024,0.011 27.245,-12.192 27.256,-27.256L27.256,-27.296C27.234,-42.34 15.044,-54.53 0,-54.552M0,-48.566C11.758,-48.566 21.29,-39.034 21.29,-27.276C21.29,-15.518 11.758,-5.986 0,-5.986C-11.758,-5.986 -21.29,-15.518 -21.29,-27.276L-21.29,-27.296C-21.29,-39.043 -11.767,-48.566 -0.02,-48.566L0,-48.566Z" style="fill:rgb(56,53,23);fill-rule:nonzero;"/>
                </g>
                <g transform="matrix(3.02533,-0.195882,1.22292,0.484585,9200.925697,12461.471729)">
                    <g opacity="0.6">
                        <g transform="matrix(-1,0,0,1,1020.9336,629.8566)">
                            <path d="M0,-42.54C-11.747,-42.54 -21.27,-33.017 -21.27,-21.27C-21.27,-9.523 -11.747,0 0,0C11.747,0 21.27,-9.523 21.27,-21.27C21.27,-33.017 11.747,-42.54 0,-42.54" style="fill:white;fill-rule:nonzero;"/>
                        </g>
                    </g>
                </g>
                <g transform="matrix(3.02533,-0.195882,1.22292,0.484585,13103.162222,12561.746811)">
                    <path d="M0,6.534C-1.529,6.534 -2.768,5.295 -2.768,3.766L-2.768,2.768C-2.768,1.24 -1.529,0 0,0C1.529,0 2.768,1.24 2.768,2.768L2.768,3.766C2.768,5.295 1.529,6.534 0,6.534" style="fill:rgb(56,53,23);fill-rule:nonzero;"/>
                </g>
                <g transform="matrix(3.02533,-0.195882,1.22292,0.484585,13128.513975,12571.792504)">
                    <path d="M0,-7.348C-1.529,-7.348 -2.768,-8.587 -2.768,-10.116L-2.768,-11.293C-2.768,-12.821 -1.529,-14.061 0,-14.061C1.529,-14.061 2.768,-12.821 2.768,-11.293L2.768,-10.116C2.768,-8.587 1.529,-7.348 0,-7.348M0,-0.317C-1.529,-0.317 -2.768,-1.556 -2.768,-3.085L-2.768,-4.262C-2.768,-5.79 -1.529,-7.03 0,-7.03C1.529,-7.03 2.768,-5.79 2.768,-4.262L2.768,-3.085C2.768,-1.556 1.529,-0.317 0,-0.317M0,6.713C-1.529,6.713 -2.768,5.474 -2.768,3.945L-2.768,2.769C-2.768,1.241 -1.529,0.001 0,0.001C1.529,0.001 2.768,1.241 2.768,2.769L2.768,3.945C2.768,5.474 1.529,6.713 0,6.713" style="fill:rgb(56,53,23);fill-rule:nonzero;"/>
                </g>
                <g transform="matrix(3.02533,-0.195882,1.22292,0.484585,13137.190106,12575.230442)">
                    <path d="M0,6.68C-1.529,6.68 -2.768,5.441 -2.768,3.912L-2.768,2.768C-2.768,1.239 -1.529,0 0,0C1.529,0 2.768,1.239 2.768,2.768L2.768,3.912C2.768,5.441 1.529,6.68 0,6.68" style="fill:rgb(56,53,23);fill-rule:nonzero;"/>
                </g>
            </g>
        </g>
    </g>
</svg>
