<?xml version="1.0" encoding="UTF-8" standalone="no"?>
<!DOCTYPE svg PUBLIC "-//W3C//DTD SVG 1.1//EN" "http://www.w3.org/Graphics/SVG/1.1/DTD/svg11.dtd">
<svg width="100%" height="100%" viewBox="0 0 100 100" version="1.1" xmlns="http://www.w3.org/2000/svg" xmlns:xlink="http://www.w3.org/1999/xlink" xml:space="preserve" xmlns:serif="http://www.serif.com/" style="fill-rule:evenodd;clip-rule:evenodd;stroke-linejoin:round;stroke-miterlimit:2;">
    <g transform="matrix(1,0,0,1,-24384.1419,-8169)">
        <g id="Mesa-de-trabajo7" serif:id="Mesa de trabajo7" transform="matrix(0.126773,0,0,0.126773,23706.178299,7133.395257)">
            <rect x="5347.875" y="8169" width="788.814" height="788.814" style="fill:none;"/>
            <g transform="matrix(1.542145,0,0,9.627817,-13095.330231,-111442.05497)">
                <g transform="matrix(4.166667,0,0,0.6674,12391.591042,12480.135337)">
                    <path d="M0,-0.464C-0.339,2.738 -3.926,4.493 -6.466,5.694C-9.36,7.08 -12.393,8.204 -15.164,9.836C-17.839,11.644 -20.409,13.602 -22.862,15.701C-25.307,17.553 -28.252,18.626 -31.314,18.78C-38.181,19.165 -44.939,16.24 -51.328,14.162C-54.546,13.115 -57.81,12.176 -61.104,11.437C-64.399,10.698 -67.555,10.344 -70.804,9.897C-73.937,9.572 -76.967,8.597 -79.702,7.034C-82.119,5.494 -84.582,3.031 -84.69,-0.002C-84.798,-3.035 -82.273,-5.606 -79.918,-7.392C-77.316,-9.393 -74.729,-11.395 -72.22,-13.55C-69.982,-15.564 -67.421,-17.187 -64.645,-18.353C-61.87,-19.253 -58.952,-19.629 -56.039,-19.462C-49.476,-19.123 -42.947,-18.305 -36.503,-17.014C-29.548,-15.845 -22.662,-14.304 -15.873,-12.395C-12.291,-11.413 -8.858,-9.952 -5.666,-8.054C-3.079,-6.514 0.37,-3.897 0,-0.464" style="fill:rgb(100,140,44);fill-rule:nonzero;"/>
                </g>
                <g transform="matrix(4.166667,0,0,0.6674,12370.806875,12455.186864)">
                    <path d="M0,20.583C4.018,7.451 6.558,-7.745 -5.635,-16.843C-11.3,-21.092 -18.259,-23.171 -25.002,-25.08C-38.181,-29.175 -53.376,-31.638 -62.49,-19.445C-66.724,-13.764 -68.802,-6.805 -70.711,-0.016C-74.745,13.116 -77.347,28.312 -65.03,37.426C-59.349,41.659 -52.375,43.738 -45.601,45.647C-32.53,49.68 -17.304,52.221 -8.221,40.104C-3.972,34.346 -1.909,27.372 0,20.583" style="fill:rgb(180,222,110);fill-rule:nonzero;"/>
                </g>
                <g transform="matrix(4.166667,0,0,0.6674,12189.205209,12476.496874)">
                    <path d="M0,6.635C-11.954,3.074 -22.563,-3.995 -30.452,-13.656C-30.437,-6.343 -28.204,0.477 -21.446,5.496C-15.765,9.729 -8.791,11.808 -2.017,13.717C11.054,17.751 26.28,20.291 35.363,8.175C35.933,7.405 36.456,6.635 36.903,5.804C24.97,9.811 12.101,10.1 0,6.635" style="fill:rgb(100,140,44);fill-rule:nonzero;"/>
                </g>
                <g transform="matrix(-1.165335,0.640766,4.000388,0.186659,12330.322159,12469.044919)">
                    <path d="M7.154,-9.535C4.527,-9.535 2.397,-6.2 2.397,-2.084C2.396,2.032 4.526,5.367 7.154,5.367C9.781,5.367 11.911,2.032 11.911,-2.084C11.911,-6.199 9.782,-9.535 7.154,-9.535" style="fill:rgb(100,140,44);fill-rule:nonzero;"/>
                </g>
                <g transform="matrix(-1.165335,0.640766,4.000388,0.186659,12126.652576,12459.536741)">
                    <path d="M7.154,-9.535C4.527,-9.535 2.397,-6.2 2.396,-2.085C2.396,2.032 4.526,5.367 7.154,5.367C9.781,5.367 11.911,2.032 11.911,-2.084C11.911,-6.199 9.781,-9.536 7.154,-9.535" style="fill:rgb(100,140,44);fill-rule:nonzero;"/>
                </g>
                <g transform="matrix(-4.166667,0,0,0.6674,12291.456459,12471.595222)">
                    <path d="M0,-20.845C-5.756,-20.845 -10.423,-16.179 -10.423,-10.422C-10.423,-4.666 -5.756,0 0,0C5.756,0 10.423,-4.666 10.423,-10.422C10.423,-16.179 5.756,-20.845 0,-20.845" style="fill:white;fill-rule:nonzero;"/>
                </g>
                <g transform="matrix(-4.166667,0,0,0.6674,12157.452292,12465.348026)">
                    <path d="M0,-20.845C-5.756,-20.845 -10.423,-16.179 -10.423,-10.422C-10.423,-4.666 -5.756,0 0,0C5.756,0 10.423,-4.666 10.423,-10.422C10.423,-16.179 5.756,-20.845 0,-20.845" style="fill:white;fill-rule:nonzero;"/>
                </g>
                <g transform="matrix(-4.166667,0,0,0.6674,12279.910209,12468.14323)">
                    <path d="M0,-12.101C-3.342,-12.101 -6.05,-9.392 -6.05,-6.051C-6.05,-2.709 -3.342,0 0,0C3.342,0 6.05,-2.709 6.05,-6.051C6.05,-9.392 3.342,-12.101 0,-12.101" style="fill:rgb(56,53,23);fill-rule:nonzero;"/>
                </g>
                <g transform="matrix(-4.166667,0,0,0.6674,12169.063125,12462.964675)">
                    <path d="M0,-12.101C-3.342,-12.101 -6.05,-9.392 -6.05,-6.051C-6.05,-2.709 -3.342,0 0,0C3.342,0 6.05,-2.709 6.05,-6.051C6.05,-9.392 3.342,-12.101 0,-12.101" style="fill:rgb(56,53,23);fill-rule:nonzero;"/>
                </g>
                <g transform="matrix(4.166667,0,0,0.6674,12162.391459,12477.084119)">
                    <path d="M0,-11.457C1.565,-10.328 3.2,-9.3 4.896,-8.378C8.156,-6.719 11.705,-5.705 15.349,-5.391C17.259,-5.237 19.176,-5.186 21.092,-5.237C22.078,-5.241 22.88,-4.444 22.883,-3.457C22.885,-2.853 22.582,-2.289 22.077,-1.958C20.038,-0.71 17.733,0.039 15.349,0.228C12.94,0.463 10.507,0.223 8.19,-0.48C3.512,-1.797 -0.423,-4.974 -2.694,-9.271C-3.135,-10.134 -2.792,-11.191 -1.929,-11.632C-1.922,-11.635 -1.916,-11.639 -1.909,-11.642C-1.334,-11.92 -0.654,-11.874 -0.123,-11.519L0,-11.457Z" style="fill:rgb(56,53,23);fill-rule:nonzero;"/>
                </g>
                <g transform="matrix(-0.812279,0.654595,4.086724,0.130107,12190.989139,12441.08922)">
                    <path d="M6.13,-7.469C4.065,-7.469 2.389,-4.671 2.389,-1.218C2.389,2.234 4.064,5.032 6.13,5.032C8.196,5.033 9.872,2.234 9.872,-1.219C9.872,-4.67 8.197,-7.469 6.13,-7.469" style="fill:rgb(100,140,44);fill-rule:nonzero;"/>
                </g>
                <g transform="matrix(-1.509517,0.622062,3.883615,0.241788,12334.295431,12448.196473)">
                    <path d="M5.825,-8.515C3.759,-8.515 2.084,-5.716 2.084,-2.265C2.084,1.188 3.759,3.986 5.825,3.987C7.892,3.986 9.566,1.188 9.566,-2.264C9.567,-5.716 7.892,-8.515 5.825,-8.515" style="fill:rgb(100,140,44);fill-rule:nonzero;"/>
                </g>
            </g>
        </g>
    </g>
</svg>
