<?xml version="1.0" encoding="UTF-8" standalone="no"?>
<!DOCTYPE svg PUBLIC "-//W3C//DTD SVG 1.1//EN" "http://www.w3.org/Graphics/SVG/1.1/DTD/svg11.dtd">
<svg width="100%" height="100%" viewBox="0 0 100 100" version="1.1" xmlns="http://www.w3.org/2000/svg" xmlns:xlink="http://www.w3.org/1999/xlink" xml:space="preserve" xmlns:serif="http://www.serif.com/" style="fill-rule:evenodd;clip-rule:evenodd;stroke-linejoin:round;stroke-miterlimit:2;">
    <g transform="matrix(1,0,0,1,-24613.647556,-8280.586411)">
        <g id="Mesa-de-trabajo7" serif:id="Mesa de trabajo7" transform="matrix(0.126773,0,0,0.126773,23935.683955,7244.981668)">
            <rect x="5347.875" y="8169" width="788.814" height="788.814" style="fill:none;"/>
            <g transform="matrix(1.605505,0,0,10.594615,-11297.766966,-124160.181479)">
                <g transform="matrix(4.050659,-0.127195,0.839348,0.613836,10775.590065,12518.555122)">
                    <path d="M0,0.033C0.215,-14.433 -1.653,-30.535 -16.714,-36.156C-23.707,-38.817 -31.361,-38.867 -38.784,-38.801C-53.25,-39.016 -69.368,-37.148 -74.989,-22.087C-77.601,-15.094 -77.651,-7.439 -77.585,0.033C-77.8,14.515 -75.932,30.617 -60.871,36.238C-53.878,38.85 -46.224,38.9 -38.784,38.834C-24.319,39.049 -8.216,37.18 -2.596,22.12C0.033,15.077 0.066,7.423 0,0.033" style="fill:rgb(180,222,110);fill-rule:nonzero;"/>
                </g>
                <g transform="matrix(4.050659,-0.127195,0.839348,0.613836,10528.926254,12507.635034)">
                    <path d="M0,0.969C2.711,0.8 5.383,0.244 7.935,-0.684C9.159,-1.147 10.347,-1.7 11.49,-2.337C12.664,-2.966 13.788,-3.726 15.061,-4.553L15.16,-4.553C15.915,-5.04 16.921,-4.834 17.425,-4.09C17.704,-3.664 17.771,-3.133 17.607,-2.652C16.245,0.823 13.411,3.512 9.87,4.689C6.398,6.009 2.526,5.774 -0.76,4.044C-1.538,3.591 -1.81,2.599 -1.372,1.812C-1.103,1.353 -0.629,1.051 -0.099,1.002L0,0.969Z" style="fill:rgb(100,140,44);fill-rule:nonzero;"/>
                </g>
                <g transform="matrix(4.050659,-0.127195,0.839348,0.613836,10548.211052,12517.448342)">
                    <path d="M0,-2.857C2.641,-1.889 5.484,-1.599 8.266,-2.014C9.564,-2.266 10.821,-2.694 12.002,-3.287C13.289,-3.977 14.527,-4.756 15.705,-5.618C16.35,-6.076 17.243,-5.929 17.706,-5.287C17.989,-4.886 18.045,-4.367 17.855,-3.915C16.277,-0.303 12.969,2.258 9.076,2.88C7.125,3.219 5.12,3.072 3.24,2.45C1.442,1.871 -0.187,0.861 -1.504,-0.493C-2.055,-1.053 -2.055,-1.95 -1.504,-2.51C-1.136,-2.864 -0.604,-2.991 -0.116,-2.84L0,-2.857Z" style="fill:rgb(56,53,23);fill-rule:nonzero;"/>
                </g>
                <g transform="matrix(4.050659,-0.127195,0.839348,0.613836,10686.421875,12515.197465)">
                    <path d="M0,-8.881C2.14,-7.067 4.696,-5.811 7.439,-5.227C8.746,-5.018 10.076,-4.99 11.391,-5.145C12.838,-5.351 14.269,-5.661 15.672,-6.071C16.434,-6.283 17.225,-5.839 17.441,-5.079C17.563,-4.6 17.439,-4.092 17.111,-3.723C14.366,-0.91 10.389,0.333 6.53,-0.417C4.58,-0.765 2.747,-1.589 1.19,-2.814C-0.295,-3.976 -1.47,-5.486 -2.232,-7.211C-2.51,-7.946 -2.14,-8.766 -1.405,-9.044C-0.957,-9.214 -0.454,-9.146 -0.066,-8.865L0,-8.881Z" style="fill:rgb(56,53,23);fill-rule:nonzero;"/>
                </g>
                <g transform="matrix(4.050659,-0.127195,0.839348,0.613836,10663.703479,12526.470683)">
                    <path d="M0,6.25C0.98,5.723 1.915,5.114 2.794,4.431C3.105,4.179 3.373,3.877 3.587,3.539C3.673,3.397 3.729,3.24 3.753,3.076C3.733,2.906 3.676,2.742 3.587,2.596C3.373,2.258 3.105,1.956 2.794,1.704C1.911,1.026 0.977,0.419 0,-0.115C-0.427,-0.362 -0.573,-0.908 -0.326,-1.335C-0.322,-1.341 -0.318,-1.348 -0.314,-1.355C-0.195,-1.567 0.01,-1.718 0.248,-1.768C1.712,-2.12 3.252,-1.981 4.629,-1.371C5.44,-1.036 6.167,-0.529 6.762,0.117C8.328,1.804 8.328,4.414 6.762,6.101C6.163,6.741 5.436,7.248 4.629,7.589C3.233,8.213 1.674,8.37 0.182,8.035C-0.306,7.921 -0.61,7.433 -0.496,6.944C-0.433,6.703 -0.279,6.495 -0.066,6.366L0,6.25Z" style="fill:rgb(56,53,23);fill-rule:nonzero;"/>
                </g>
                <g transform="matrix(4.050659,-0.127195,0.839348,0.613836,10656.884448,12521.48376)">
                    <path d="M0,6.323C0.978,5.785 1.912,5.171 2.794,4.488C3.1,4.237 3.368,3.941 3.587,3.612C3.674,3.465 3.73,3.302 3.753,3.132C3.733,2.963 3.676,2.799 3.587,2.653C3.372,2.32 3.104,2.024 2.794,1.777C1.916,1.088 0.981,0.474 0,-0.058C-0.427,-0.305 -0.573,-0.851 -0.326,-1.278C-0.322,-1.285 -0.318,-1.292 -0.314,-1.298C-0.195,-1.511 0.01,-1.661 0.248,-1.712C1.713,-2.055 3.25,-1.916 4.629,-1.315C5.44,-0.98 6.167,-0.472 6.762,0.173C8.328,1.86 8.328,4.47 6.762,6.158C6.163,6.797 5.436,7.304 4.629,7.646C3.248,8.239 1.713,8.378 0.248,8.042C-0.24,7.928 -0.543,7.44 -0.43,6.951C-0.372,6.712 -0.216,6.508 0,6.389L0,6.323Z" style="fill:rgb(56,53,23);fill-rule:nonzero;"/>
                </g>
                <g transform="matrix(4.050659,-0.127195,0.839348,0.613836,10586.818862,12525.048135)">
                    <path d="M0,17.335C-1.446,13.818 -3.595,10.634 -6.315,7.978C-7.674,6.725 -9.159,5.617 -10.746,4.671C-12.41,3.689 -14.145,2.833 -15.937,2.109C-16.687,1.878 -17.109,1.083 -16.879,0.332C-16.857,0.261 -16.829,0.192 -16.797,0.125C-16.585,-0.378 -16.102,-0.713 -15.557,-0.735C-13.239,-0.826 -10.93,-0.402 -8.795,0.505C-6.621,1.406 -4.636,2.707 -2.943,4.341C0.477,7.573 2.49,12.02 2.662,16.723C2.68,17.49 2.073,18.126 1.306,18.145L1.273,18.145C0.705,18.161 0.186,17.826 -0.033,17.302L0,17.335Z" style="fill:rgb(100,140,44);fill-rule:nonzero;"/>
                </g>
                <g transform="matrix(4.050659,-0.127195,0.839348,0.613836,10641.273015,12540.151137)">
                    <path d="M0,3.852C-13.139,3.769 -25.949,-0.263 -36.767,-7.72C-34.602,-0.331 -30.32,5.935 -22.087,9.01C-15.094,11.622 -7.439,11.672 0,11.606C14.466,11.82 30.568,9.952 36.189,-5.108C36.552,-6.051 36.85,-7.01 37.114,-7.968C26.225,-0.361 13.283,3.76 0,3.852" style="fill:rgb(100,140,44);fill-rule:nonzero;"/>
                </g>
                <g transform="matrix(4.050659,-0.127195,0.839348,0.613836,10732.08863,12498.744325)">
                    <path d="M0,8.727C-0.716,7.204 -1.586,5.758 -2.596,4.412L-3.257,4.313C-4.533,4.079 -5.793,3.758 -7.026,3.354C-9.568,2.41 -11.962,1.107 -14.135,-0.514L-14.218,-0.514C-14.988,-1.004 -16.01,-0.775 -16.499,-0.004C-16.737,0.37 -16.814,0.823 -16.714,1.255C-15.308,4.698 -12.49,7.372 -8.977,8.595C-6.092,9.684 -2.916,9.731 0,8.727" style="fill:rgb(100,140,44);fill-rule:nonzero;"/>
                </g>
                <g transform="matrix(4.050659,-0.127195,0.839348,0.613836,10614.352437,12544.46919)">
                    <path d="M0,4.131C-0.57,3.71 -1.259,3.479 -1.967,3.47C-1.362,1.747 -2.268,-0.14 -3.991,-0.745C-4.787,-1.025 -5.66,-0.99 -6.431,-0.647C-6.353,-2.471 -7.77,-4.013 -9.594,-4.091C-10.079,-4.111 -10.563,-4.025 -11.01,-3.837L-5.77,-10.45C-4.652,-11.895 -4.917,-13.971 -6.361,-15.089C-6.379,-15.102 -6.397,-15.116 -6.414,-15.129C-7.906,-16.067 -9.865,-15.732 -10.961,-14.352L-21.376,-1.308L-21.707,-0.878C-21.581,-2.736 -21.886,-4.597 -22.599,-6.317C-23.411,-7.552 -24.943,-8.098 -26.352,-7.656C-28.138,-6.995 -27.89,-5.358 -28.005,-3.308L-28.452,2.18C-28.906,7.344 -26.792,12.4 -22.798,15.703L-20.334,17.588C-17.303,20.017 -13.046,20.198 -9.82,18.034L-7.489,16.497C-4.477,14.481 -1.79,12.017 0.479,9.19C1.744,7.665 1.534,5.403 0.009,4.138C0.006,4.136 0.003,4.133 0,4.131" style="fill:rgb(56,53,23);fill-rule:nonzero;"/>
                </g>
            </g>
        </g>
    </g>
</svg>
