<?xml version="1.0" encoding="UTF-8" standalone="no"?>
<!DOCTYPE svg PUBLIC "-//W3C//DTD SVG 1.1//EN" "http://www.w3.org/Graphics/SVG/1.1/DTD/svg11.dtd">
<svg width="100%" height="100%" viewBox="0 0 100 100" version="1.1" xmlns="http://www.w3.org/2000/svg" xmlns:xlink="http://www.w3.org/1999/xlink" xml:space="preserve" xmlns:serif="http://www.serif.com/" style="fill-rule:evenodd;clip-rule:evenodd;stroke-linejoin:round;stroke-miterlimit:2;">
    <g transform="matrix(1,0,0,1,-24829.270343,-8515.048319)">
        <g id="Mesa-de-trabajo7" serif:id="Mesa de trabajo7" transform="matrix(0.126773,0,0,0.126773,24151.306743,7479.443576)">
            <rect x="5347.875" y="8169" width="788.814" height="788.814" style="fill:none;"/>
            <g transform="matrix(14.552328,0,0,14.552328,5402.291268,8888.799472)">
                <path d="M0,-14.916L4.744,-14.916C5.233,-12.862 6.138,-11.085 7.458,-9.585C8.779,-8.086 10.433,-6.92 12.422,-6.089C14.41,-5.257 16.628,-4.841 19.073,-4.841L27.876,-4.841C30.354,-4.841 32.587,-5.257 34.577,-6.089C36.565,-6.92 38.22,-8.086 39.541,-9.585C40.861,-11.085 41.766,-12.862 42.255,-14.916L46.95,-14.916C45.874,-10.189 43.673,-6.521 40.348,-3.913C37.022,-1.304 32.865,0 27.876,0L19.073,0C14.085,0 9.928,-1.304 6.602,-3.913C3.277,-6.521 1.076,-10.189 0,-14.916ZM46.95,-29.804L42.206,-29.804C41.717,-31.858 40.812,-33.635 39.492,-35.135C38.171,-36.634 36.517,-37.8 34.528,-38.631C32.54,-39.463 30.322,-39.879 27.877,-39.879L19.074,-39.879C16.596,-39.879 14.363,-39.463 12.373,-38.631C10.385,-37.8 8.73,-36.634 7.409,-35.135C6.089,-33.635 5.184,-31.858 4.695,-29.804L0,-29.804C1.076,-34.531 3.277,-38.199 6.602,-40.807C9.928,-43.416 14.085,-44.72 19.074,-44.72L27.877,-44.72C32.865,-44.72 37.022,-43.416 40.348,-40.807C43.673,-38.199 45.874,-34.531 46.95,-29.804ZM28.889,-20.933L28.889,-23.8L38.718,-23.8L38.718,-20.933L28.889,-20.933ZM8.364,-20.933L8.364,-23.8L18.193,-23.8L18.193,-20.933L8.364,-20.933Z" style="fill:rgb(179,136,211);"/>
            </g>
        </g>
    </g>
</svg>
