<?xml version="1.0" encoding="UTF-8" standalone="no"?>
<!DOCTYPE svg PUBLIC "-//W3C//DTD SVG 1.1//EN" "http://www.w3.org/Graphics/SVG/1.1/DTD/svg11.dtd">
<svg width="100%" height="100%" viewBox="0 0 100 100" version="1.1" xmlns="http://www.w3.org/2000/svg" xmlns:xlink="http://www.w3.org/1999/xlink" xml:space="preserve" xmlns:serif="http://www.serif.com/" style="fill-rule:evenodd;clip-rule:evenodd;stroke-linejoin:round;stroke-miterlimit:2;">
    <g transform="matrix(1,0,0,1,-24498.089203,-8515.048319)">
        <g id="Mesa-de-trabajo7" serif:id="Mesa de trabajo7" transform="matrix(0.126773,0,0,0.126773,23820.125602,7479.443576)">
            <rect x="5347.875" y="8169" width="788.814" height="788.814" style="fill:none;"/>
            <g transform="matrix(14.552328,0,0,14.552328,5833.273787,8567.356006)">
                <path d="M-20.394,0C-20.394,-1.792 -20.051,-3.157 -19.367,-4.096C-18.682,-5.035 -17.786,-5.504 -16.677,-5.504C-15.536,-5.504 -14.623,-5.035 -13.938,-4.096C-13.254,-3.157 -12.911,-1.792 -12.911,0C-12.911,1.792 -13.254,3.157 -13.938,4.097C-14.623,5.035 -15.536,5.504 -16.677,5.504C-17.786,5.504 -18.682,5.035 -19.367,4.097C-20.051,3.157 -20.394,1.792 -20.394,0ZM-29.997,7.173L-25.253,7.173C-24.764,9.227 -23.859,11.004 -22.539,12.504C-21.218,14.003 -19.564,15.169 -17.575,16C-15.587,16.832 -13.369,17.248 -10.924,17.248L-2.121,17.248C0.357,17.248 2.59,16.832 4.58,16C6.568,15.169 8.223,14.003 9.544,12.504C10.864,11.004 11.769,9.227 12.258,7.173L16.953,7.173C15.877,11.9 13.676,15.568 10.351,18.176C7.025,20.785 2.868,22.089 -2.121,22.089L-10.924,22.089C-15.912,22.089 -20.069,20.785 -23.395,18.176C-26.72,15.568 -28.921,11.9 -29.997,7.173ZM16.953,-7.716L12.209,-7.716C11.72,-9.77 10.815,-11.547 9.495,-13.047C8.174,-14.546 6.52,-15.712 4.531,-16.543C2.543,-17.375 0.325,-17.791 -2.12,-17.791L-10.923,-17.791C-13.401,-17.791 -15.634,-17.375 -17.624,-16.543C-19.612,-15.712 -21.267,-14.546 -22.588,-13.047C-23.908,-11.547 -24.813,-9.77 -25.302,-7.716L-29.997,-7.716C-28.921,-12.442 -26.72,-16.111 -23.395,-18.719C-20.069,-21.328 -15.912,-22.632 -10.923,-22.632L-2.12,-22.632C2.868,-22.632 7.025,-21.328 10.351,-18.719C13.676,-16.111 15.877,-12.442 16.953,-7.716ZM7.528,-4.907L7.528,-0.495L-2.116,2.027L-2.116,-3.268L7.528,-4.907Z" style="fill:rgb(255,212,0);"/>
            </g>
        </g>
    </g>
</svg>
