<?xml version="1.0" encoding="UTF-8" standalone="no"?>
<!DOCTYPE svg PUBLIC "-//W3C//DTD SVG 1.1//EN" "http://www.w3.org/Graphics/SVG/1.1/DTD/svg11.dtd">
<svg width="100%" height="100%" viewBox="0 0 100 100" version="1.1" xmlns="http://www.w3.org/2000/svg" xmlns:xlink="http://www.w3.org/1999/xlink" xml:space="preserve" xmlns:serif="http://www.serif.com/" style="fill-rule:evenodd;clip-rule:evenodd;stroke-linejoin:round;stroke-miterlimit:2;">
    <g transform="matrix(1,0,0,1,-24717.769926,-8515.048319)">
        <g id="Mesa-de-trabajo7" serif:id="Mesa de trabajo7" transform="matrix(0.126773,0,0,0.126773,24039.806325,7479.443576)">
            <rect x="5347.875" y="8169" width="788.814" height="788.814" style="fill:none;"/>
            <g transform="matrix(9.455347,0,0,9.455347,5804.292848,8552.78148)">
                <path d="M-20.347,-1.092L-27.724,-1.092L-27.724,-5.504L-16.677,-5.504C-15.536,-5.504 -14.623,-5.035 -13.938,-4.096C-13.4,-3.358 -13.073,-2.357 -12.958,-1.092C-12.927,-0.747 -12.911,-0.383 -12.911,0C-12.911,1.792 -13.254,3.157 -13.938,4.097C-14.623,5.035 -15.536,5.504 -16.677,5.504C-17.786,5.504 -18.682,5.035 -19.367,4.097C-20.051,3.157 -20.394,1.792 -20.394,0C-20.394,-0.383 -20.378,-0.747 -20.347,-1.092ZM7.436,-1.092C7.467,-0.747 7.483,-0.383 7.483,0C7.483,1.792 7.141,3.157 6.456,4.097C5.771,5.035 4.874,5.504 3.766,5.504C2.624,5.504 1.712,5.035 1.027,4.097C0.342,3.157 0,1.792 0,0C0,-0.383 0.016,-0.747 0.047,-1.092C0.162,-2.357 0.489,-3.358 1.027,-4.096C1.712,-5.035 2.624,-5.504 3.766,-5.504L15.079,-5.504L15.079,-1.092L7.436,-1.092ZM-42.585,12.581L-35.284,12.581C-34.531,15.742 -33.138,18.477 -31.107,20.785C-29.073,23.093 -26.528,24.887 -23.467,26.166C-20.407,27.447 -16.993,28.087 -13.23,28.087L0.318,28.087C4.132,28.087 7.568,27.447 10.631,26.166C13.691,24.887 16.238,23.093 18.271,20.785C20.303,18.477 21.695,15.742 22.448,12.581L29.674,12.581C28.018,19.856 24.63,25.501 19.513,29.515C14.394,33.53 7.996,35.537 0.318,35.537L-13.23,35.537C-20.907,35.537 -27.305,33.53 -32.424,29.515C-37.541,25.501 -40.929,19.856 -42.585,12.581ZM29.674,-10.333L22.373,-10.333C21.62,-13.494 20.227,-16.229 18.196,-18.538C16.162,-20.845 13.617,-22.64 10.556,-23.918C7.496,-25.199 4.082,-25.839 0.319,-25.839L-13.229,-25.839C-17.043,-25.839 -20.479,-25.199 -23.542,-23.918C-26.602,-22.64 -29.149,-20.845 -31.182,-18.538C-33.214,-16.229 -34.606,-13.494 -35.359,-10.333L-42.585,-10.333C-40.929,-17.608 -37.541,-23.254 -32.424,-27.267C-27.305,-31.283 -20.907,-33.29 -13.229,-33.29L0.319,-33.29C7.996,-33.29 14.394,-31.283 19.513,-27.267C24.63,-23.254 28.018,-17.608 29.674,-10.333Z" style="fill:rgb(102,255,204);"/>
            </g>
        </g>
    </g>
</svg>
