<?xml version="1.0" encoding="UTF-8" standalone="no"?>
<!DOCTYPE svg PUBLIC "-//W3C//DTD SVG 1.1//EN" "http://www.w3.org/Graphics/SVG/1.1/DTD/svg11.dtd">
<svg width="100%" height="100%" viewBox="0 0 355 355" version="1.1" xmlns="http://www.w3.org/2000/svg" xmlns:xlink="http://www.w3.org/1999/xlink" xml:space="preserve" xmlns:serif="http://www.serif.com/" style="fill-rule:evenodd;clip-rule:evenodd;stroke-linejoin:round;stroke-miterlimit:2;">
    <g transform="matrix(1,0,0,1,-9400,-15697)">
        <g id="Mesa-de-trabajo10" serif:id="Mesa de trabajo10" transform="matrix(1,0,0,1,-0.348653,-0.825237)">
            <rect x="9400.349" y="15697.825" width="354.25" height="354.25" style="fill:none;"/>
            <g transform="matrix(4.166667,0,0,4.166667,9602.184724,15913.378403)">
                <path d="M-26.587,-36.368C-27.923,-35.835 -29.125,-35.099 -30.191,-34.161C-31.743,-32.794 -32.95,-31.082 -33.81,-29.023C-34.671,-26.965 -35.102,-24.669 -35.102,-22.138L-35.102,-13.025C-35.102,-10.46 -34.671,-8.148 -33.81,-6.088C-32.95,-4.03 -31.743,-2.317 -30.191,-0.95C-28.638,0.417 -26.799,1.354 -24.672,1.86L-24.672,6.72C-29.566,5.606 -33.363,3.328 -36.062,-0.114C-38.763,-3.557 -40.113,-7.86 -40.113,-13.025L-40.113,-22.138C-40.113,-27.301 -38.763,-31.604 -36.062,-35.047C-35.713,-35.493 -35.344,-35.92 -34.958,-36.327C-34.291,-37.072 -33.559,-37.757 -32.764,-38.381C-29.438,-40.99 -25.281,-42.294 -20.292,-42.294L-11.489,-42.294C-6.501,-42.294 -2.344,-40.99 0.982,-38.381C4.307,-35.773 6.508,-32.105 7.584,-27.378L2.84,-27.378C2.351,-29.432 1.446,-31.209 0.126,-32.709C-1.195,-34.208 -2.849,-35.374 -4.838,-36.205C-6.826,-37.037 -9.044,-37.453 -11.489,-37.453L-20.292,-37.453C-22.602,-37.453 -24.7,-37.092 -26.587,-36.368ZM-20.763,23.849L-20.763,-8.414L-20.761,-8.414C-19.647,-13.304 -17.369,-17.099 -13.928,-19.798C-10.485,-22.499 -6.182,-23.849 -1.018,-23.849L8.095,-23.849C13.258,-23.849 17.562,-22.499 21.005,-19.798C21.451,-19.448 21.877,-19.08 22.284,-18.693C23.03,-18.026 23.715,-17.295 24.339,-16.499C26.948,-13.173 28.252,-9.016 28.252,-4.027L28.252,4.776C28.252,9.764 26.948,13.921 24.339,17.247C21.734,20.568 18.071,22.768 13.352,23.845L13.352,23.849L-20.763,23.849ZM13.336,19.113L13.336,19.105C15.39,18.616 17.167,17.711 18.667,16.391C20.166,15.07 21.332,13.416 22.163,11.427C22.995,9.439 23.411,7.221 23.411,4.776L23.411,-4.027C23.411,-6.338 23.049,-8.436 22.325,-10.323C21.792,-11.659 21.057,-12.86 20.119,-13.927C18.751,-15.478 17.039,-16.685 14.98,-17.546C12.922,-18.407 10.626,-18.838 8.095,-18.838L-1.018,-18.838C-3.583,-18.838 -5.894,-18.407 -7.954,-17.546C-10.012,-16.685 -11.726,-15.478 -13.093,-13.927C-14.458,-12.375 -15.395,-10.538 -15.901,-8.414L-15.892,-8.414L-15.892,19.113L13.336,19.113ZM0,0C0,-1.792 0.342,-3.157 1.027,-4.096C1.712,-5.035 2.624,-5.504 3.766,-5.504C4.874,-5.504 5.771,-5.035 6.456,-4.096C7.141,-3.157 7.483,-1.792 7.483,0C7.483,1.792 7.141,3.157 6.456,4.097C5.771,5.035 4.874,5.504 3.766,5.504C2.624,5.504 1.712,5.035 1.027,4.097C0.342,3.157 0,1.792 0,0ZM-10.794,0C-10.794,-1.792 -10.451,-3.157 -9.767,-4.096C-9.082,-5.035 -8.186,-5.504 -7.077,-5.504C-5.936,-5.504 -5.023,-5.035 -4.338,-4.096C-3.654,-3.157 -3.311,-1.792 -3.311,0C-3.311,1.792 -3.654,3.157 -4.338,4.097C-5.023,5.035 -5.936,5.504 -7.077,5.504C-8.186,5.504 -9.082,5.035 -9.767,4.097C-10.451,3.157 -10.794,1.792 -10.794,0ZM10.8,0C10.8,-1.792 11.142,-3.157 11.827,-4.096C12.512,-5.035 13.424,-5.504 14.566,-5.504C15.674,-5.504 16.571,-5.035 17.256,-4.096C17.941,-3.157 18.283,-1.792 18.283,0C18.283,1.792 17.941,3.157 17.256,4.097C16.571,5.035 15.674,5.504 14.566,5.504C13.424,5.504 12.512,5.035 11.827,4.097C11.142,3.157 10.8,1.792 10.8,0Z" style="fill:rgb(56,53,23);"/>
            </g>
        </g>
    </g>
</svg>
