<?xml version="1.0" encoding="UTF-8" standalone="no"?>
<!DOCTYPE svg PUBLIC "-//W3C//DTD SVG 1.1//EN" "http://www.w3.org/Graphics/SVG/1.1/DTD/svg11.dtd">
<svg width="100%" height="100%" viewBox="0 0 355 355" version="1.1" xmlns="http://www.w3.org/2000/svg" xmlns:xlink="http://www.w3.org/1999/xlink" xml:space="preserve" xmlns:serif="http://www.serif.com/" style="fill-rule:evenodd;clip-rule:evenodd;stroke-linejoin:round;stroke-miterlimit:2;">
    <g transform="matrix(1,0,0,1,-9400,-15697)">
        <g id="Mesa-de-trabajo10" serif:id="Mesa de trabajo10" transform="matrix(1,0,0,1,-0.348653,-0.825237)">
            <rect x="9400.349" y="15697.825" width="354.25" height="354.25" style="fill:none;"/>
            <g transform="matrix(4.166667,0,0,4.166667,9653.157337,15925.537145)">
                <path d="M-16.258,-24.164C-14.598,-24.543 -12.817,-24.733 -10.914,-24.733L-2.111,-24.733C2.877,-24.733 7.034,-23.429 10.36,-20.82C10.47,-20.733 10.58,-20.645 10.688,-20.556C11.84,-19.663 12.869,-18.64 13.774,-17.486C16.475,-14.043 17.825,-9.739 17.825,-4.576L17.825,4.537C17.825,9.701 16.475,14.005 13.774,17.448C13.057,18.362 12.263,19.194 11.391,19.944C11.06,20.248 10.716,20.54 10.36,20.82C7.034,23.429 2.877,24.733 -2.112,24.733L-10.915,24.733C-15.903,24.733 -20.06,23.429 -23.386,20.82C-24.395,20.028 -25.3,19.14 -26.102,18.154C-26.302,17.924 -26.496,17.689 -26.685,17.448C-29.386,14.005 -30.736,9.701 -30.736,4.537L-30.736,-4.576C-30.736,-9.739 -29.386,-14.043 -26.685,-17.486C-26.335,-17.932 -25.967,-18.358 -25.58,-18.765C-24.913,-19.511 -24.182,-20.195 -23.386,-20.82C-22.285,-21.683 -21.093,-22.404 -19.81,-22.981L-24.446,-25.078L-24.446,-28.006L-15.026,-32.286L-15.026,-29.501L-20.678,-27.023C-20.951,-26.9 -21.238,-26.798 -21.538,-26.716C-21.839,-26.634 -22.078,-26.579 -22.255,-26.552C-22.078,-26.525 -21.839,-26.474 -21.538,-26.399C-21.238,-26.323 -20.951,-26.224 -20.678,-26.102L-16.258,-24.164ZM-17.21,-18.806C-18.546,-18.273 -19.748,-17.538 -20.814,-16.599C-22.365,-15.232 -23.572,-13.52 -24.433,-11.461C-25.294,-9.403 -25.725,-7.107 -25.725,-4.576L-25.725,4.537C-25.725,7.102 -25.294,9.414 -24.433,11.474C-23.572,13.531 -22.365,15.245 -20.814,16.612C-20.121,17.222 -19.371,17.746 -18.565,18.184C-18.242,18.347 -17.909,18.5 -17.566,18.644C-15.578,19.476 -13.36,19.892 -10.915,19.892L-2.112,19.892C0.366,19.892 2.599,19.476 4.589,18.644C5.255,18.365 5.883,18.049 6.474,17.696C6.975,17.371 7.451,17.01 7.903,16.612C9.454,15.245 10.661,13.531 11.522,11.474C12.383,9.414 12.814,7.102 12.814,4.537L12.814,-4.576C12.814,-7.107 12.383,-9.403 11.522,-11.461C10.661,-13.52 9.454,-15.232 7.903,-16.599C7.552,-16.908 7.186,-17.195 6.805,-17.461C6.106,-17.91 5.351,-18.305 4.54,-18.644C2.552,-19.476 0.334,-19.892 -2.111,-19.892L-10.914,-19.892C-13.225,-19.892 -15.323,-19.53 -17.21,-18.806ZM-20.394,0C-20.394,-1.792 -20.051,-3.157 -19.367,-4.096C-18.682,-5.035 -17.786,-5.504 -16.677,-5.504C-15.536,-5.504 -14.623,-5.035 -13.938,-4.096C-13.254,-3.157 -12.911,-1.792 -12.911,0C-12.911,1.792 -13.254,3.157 -13.938,4.097C-14.623,5.035 -15.536,5.504 -16.677,5.504C-17.786,5.504 -18.682,5.035 -19.367,4.097C-20.051,3.157 -20.394,1.792 -20.394,0ZM0,0C0,-1.792 0.342,-3.157 1.027,-4.096C1.712,-5.035 2.624,-5.504 3.766,-5.504C4.874,-5.504 5.771,-5.035 6.456,-4.096C7.141,-3.157 7.483,-1.792 7.483,0C7.483,1.792 7.141,3.157 6.456,4.097C5.771,5.035 4.874,5.504 3.766,5.504C2.624,5.504 1.712,5.035 1.027,4.097C0.342,3.157 0,1.792 0,0ZM-40.627,-43.088C-41.963,-42.555 -43.165,-41.819 -44.231,-40.881C-45.783,-39.514 -46.99,-37.802 -47.85,-35.743C-48.711,-33.685 -49.142,-31.389 -49.142,-28.858L-49.142,-19.745C-49.142,-17.18 -48.711,-14.868 -47.85,-12.808C-46.99,-10.75 -45.783,-9.037 -44.231,-7.67C-42.678,-6.303 -40.839,-5.366 -38.712,-4.86L-38.712,-0C-43.606,-1.114 -47.403,-3.392 -50.102,-6.834C-52.803,-10.277 -54.153,-14.58 -54.153,-19.745L-54.153,-28.858C-54.153,-34.021 -52.803,-38.324 -50.102,-41.767C-49.753,-42.213 -49.384,-42.64 -48.998,-43.047C-48.331,-43.792 -47.599,-44.477 -46.804,-45.101C-43.478,-47.71 -39.321,-49.014 -34.332,-49.014L-25.529,-49.014C-20.541,-49.014 -16.384,-47.71 -13.058,-45.101C-9.733,-42.493 -7.532,-38.825 -6.456,-34.098L-11.2,-34.098C-11.689,-36.152 -12.594,-37.929 -13.914,-39.429C-15.235,-40.928 -16.889,-42.094 -18.878,-42.925C-20.866,-43.757 -23.084,-44.173 -25.529,-44.173L-34.332,-44.173C-36.642,-44.173 -38.74,-43.812 -40.627,-43.088ZM-43.646,-20.818L-43.646,-23.603L-37.994,-26.081C-37.721,-26.204 -37.435,-26.306 -37.134,-26.388C-36.834,-26.47 -36.595,-26.525 -36.418,-26.552C-36.595,-26.579 -36.834,-26.631 -37.134,-26.706C-37.435,-26.781 -37.721,-26.88 -37.994,-27.003L-43.646,-29.48L-43.646,-32.286L-34.226,-28.027L-34.226,-25.098L-43.646,-20.818Z" style="fill:rgb(56,53,23);"/>
            </g>
        </g>
    </g>
</svg>
