<?xml version="1.0" encoding="UTF-8" standalone="no"?>
<!DOCTYPE svg PUBLIC "-//W3C//DTD SVG 1.1//EN" "http://www.w3.org/Graphics/SVG/1.1/DTD/svg11.dtd">
<svg width="100%" height="100%" viewBox="0 0 355 355" version="1.1" xmlns="http://www.w3.org/2000/svg" xmlns:xlink="http://www.w3.org/1999/xlink" xml:space="preserve" xmlns:serif="http://www.serif.com/" style="fill-rule:evenodd;clip-rule:evenodd;stroke-linejoin:round;stroke-miterlimit:2;">
    <g transform="matrix(1,0,0,1,-9400,-15697)">
        <g id="Mesa-de-trabajo10" serif:id="Mesa de trabajo10" transform="matrix(1,0,0,1,-0.348653,-0.825237)">
            <rect x="9400.349" y="15697.825" width="354.25" height="354.25" style="fill:none;"/>
            <g transform="matrix(4.166667,0,0,4.166667,9675.157834,15799.168817)">
                <path d="M-47.595,17.754L-53.415,23.574L-56.764,20.226L-42.953,6.416C-42.819,6.264 -42.682,6.114 -42.542,5.968C-42.037,5.403 -41.495,4.873 -40.916,4.378L-23.448,-13.09L-23.444,-13.087L-23.441,-13.09L-5.762,4.589C-4.959,5.26 -4.22,5.999 -3.546,6.805L9.875,20.226L6.527,23.574L0.765,17.813C0.831,18.573 0.863,19.355 0.863,20.157L0.863,29.269C0.863,34.434 -0.487,38.737 -3.188,42.18C-3.905,43.094 -4.699,43.927 -5.571,44.677C-5.902,44.981 -6.245,45.273 -6.602,45.552C-9.928,48.161 -14.085,49.465 -19.074,49.465L-27.877,49.465C-32.865,49.465 -37.022,48.161 -40.348,45.552C-41.357,44.761 -42.262,43.872 -43.064,42.886C-43.263,42.657 -43.458,42.421 -43.647,42.18C-46.348,38.737 -47.698,34.434 -47.698,29.269L-47.698,20.157C-47.698,19.334 -47.663,18.533 -47.595,17.754ZM-23.444,-6.397L-29.917,0.076C-29.253,0.025 -28.573,0 -27.876,0L-19.073,0C-18.353,0 -17.651,0.027 -16.966,0.081L-23.444,-6.397ZM-34.171,5.926C-35.508,6.459 -36.709,7.195 -37.775,8.133C-39.327,9.501 -40.534,11.213 -41.394,13.272C-42.256,15.33 -42.686,17.626 -42.686,20.157L-42.686,29.269C-42.686,31.835 -42.256,34.146 -41.394,36.206C-40.534,38.264 -39.327,39.977 -37.775,41.345C-37.083,41.954 -36.333,42.478 -35.526,42.917C-35.204,43.08 -34.871,43.233 -34.528,43.376C-32.54,44.208 -30.322,44.624 -27.877,44.624L-19.074,44.624C-16.596,44.624 -14.363,44.208 -12.373,43.376C-11.707,43.098 -11.079,42.782 -10.487,42.428C-9.987,42.104 -9.511,41.742 -9.059,41.345C-7.507,39.977 -6.3,38.264 -5.44,36.206C-4.579,34.146 -4.148,31.835 -4.148,29.269L-4.148,20.157C-4.148,17.626 -4.579,15.33 -5.44,13.272C-6.3,11.213 -7.507,9.501 -9.059,8.133C-9.41,7.824 -9.776,7.537 -10.157,7.272C-10.856,6.822 -11.611,6.428 -12.422,6.089C-14.41,5.257 -16.628,4.841 -19.073,4.841L-27.876,4.841C-30.187,4.841 -32.285,5.203 -34.171,5.926Z" style="fill:rgb(56,53,23);"/>
            </g>
        </g>
    </g>
</svg>
