<?xml version="1.0" encoding="UTF-8" standalone="no"?>
<!DOCTYPE svg PUBLIC "-//W3C//DTD SVG 1.1//EN" "http://www.w3.org/Graphics/SVG/1.1/DTD/svg11.dtd">
<svg width="100%" height="100%" viewBox="0 0 355 355" version="1.1" xmlns="http://www.w3.org/2000/svg" xmlns:xlink="http://www.w3.org/1999/xlink" xml:space="preserve" xmlns:serif="http://www.serif.com/" style="fill-rule:evenodd;clip-rule:evenodd;stroke-linejoin:round;stroke-miterlimit:2;">
    <g transform="matrix(1,0,0,1,-9400,-15697)">
        <g id="Mesa-de-trabajo10" serif:id="Mesa de trabajo10" transform="matrix(1,0,0,1,-0.348653,-0.825237)">
            <rect x="9400.349" y="15697.825" width="354.25" height="354.25" style="fill:none;"/>
            <g transform="matrix(4.166667,0,0,4.166667,9675.045365,15771.897538)">
                <path d="M-43.064,42.886C-43.263,42.657 -43.458,42.421 -43.647,42.18C-46.348,38.737 -47.698,34.434 -47.698,29.269L-47.698,20.157C-47.698,14.993 -46.348,10.69 -43.647,7.247C-43.297,6.801 -42.929,6.375 -42.542,5.968C-41.875,5.222 -41.144,4.537 -40.348,3.913C-37.022,1.304 -32.865,0 -27.876,0L-19.073,0C-14.085,0 -9.928,1.304 -6.602,3.913C-6.491,4 -6.382,4.088 -6.274,4.177C-5.122,5.07 -4.093,6.093 -3.188,7.247C-0.487,10.69 0.863,14.993 0.863,20.157L0.863,29.269C0.863,34.434 -0.487,38.737 -3.188,42.18C-3.905,43.094 -4.699,43.927 -5.571,44.677C-5.902,44.981 -6.245,45.273 -6.602,45.552C-9.928,48.161 -14.085,49.465 -19.074,49.465L-27.877,49.465C-32.865,49.465 -37.022,48.161 -40.348,45.552C-41.357,44.761 -42.262,43.872 -43.064,42.886ZM-36.272,7.001C-36.8,7.338 -37.301,7.716 -37.775,8.133C-38.624,8.881 -39.369,9.732 -40.011,10.686L-39.191,10.8C-39.119,10.81 -39.05,10.836 -38.989,10.875L-37.694,11.708C-37.66,11.73 -37.628,11.757 -37.599,11.787L-36.489,12.977L-35.931,11.601L-36.073,10.947C-36.082,10.906 -36.086,10.865 -36.085,10.823L-36.015,8.758C-36.006,8.51 -35.816,8.305 -35.569,8.278L-34.274,8.138C-34.172,8.127 -34.069,8.148 -33.979,8.197L-32.894,8.792C-32.837,8.824 -32.786,8.866 -32.745,8.918L-32.041,9.795L-31.168,9.553C-30.926,9.486 -30.671,9.61 -30.574,9.842L-29.756,11.797L-28.516,12.63C-28.403,12.706 -28.326,12.825 -28.302,12.96C-28.279,13.094 -28.311,13.232 -28.392,13.342L-29.372,14.672C-29.416,14.731 -29.472,14.78 -29.537,14.815L-31.03,15.624L-31.323,16.673C-31.36,16.806 -31.45,16.917 -31.571,16.981L-33.021,17.747L-34.684,18.835L-34.631,19.772C-34.623,19.908 -34.671,20.041 -34.763,20.141L-36.014,21.488L-36.242,23.757C-36.264,23.974 -36.424,24.152 -36.638,24.197C-36.852,24.241 -37.069,24.142 -37.176,23.952L-37.896,22.667L-41.111,22.901L-41.56,24.084L-40.672,25.176L-39.725,24.503C-39.64,24.443 -39.539,24.41 -39.435,24.41L-38.595,24.41C-38.438,24.41 -38.289,24.484 -38.195,24.61C-38.1,24.736 -38.071,24.899 -38.115,25.05L-38.459,26.231L-37.144,26.56C-36.925,26.615 -36.77,26.809 -36.765,27.034L-36.739,28.162L-35.476,28.376L-34.376,27.704C-34.297,27.656 -34.207,27.63 -34.115,27.63L-31.7,27.63C-31.636,27.63 -31.573,27.643 -31.514,27.666L-29.939,28.296C-29.926,28.301 -29.914,28.307 -29.901,28.313L-27.381,29.573C-27.336,29.596 -27.294,29.625 -27.258,29.661L-25.288,31.563L-21.688,33.242C-21.556,33.304 -21.458,33.42 -21.418,33.561C-21.379,33.701 -21.403,33.852 -21.484,33.973L-22.64,35.707L-23.809,38.974C-23.847,39.079 -23.919,39.169 -24.013,39.228L-25.505,40.169L-26.773,42.704C-26.816,42.791 -26.884,42.863 -26.967,42.912L-28.753,43.957L-29.3,44.575C-28.835,44.608 -28.36,44.624 -27.877,44.624L-19.074,44.624C-16.855,44.624 -14.832,44.291 -13.005,43.623C-13.083,43.567 -13.145,43.488 -13.18,43.393L-14.772,39.148L-15.608,37.199C-15.644,37.114 -15.656,37.021 -15.643,36.93L-15.301,34.593L-16.407,32.381C-16.443,32.309 -16.461,32.229 -16.46,32.148L-16.438,31.028L-18.017,30.348L-21.099,30.777C-21.221,30.794 -21.345,30.765 -21.447,30.697L-23.696,29.185C-23.805,29.111 -23.881,28.998 -23.907,28.869L-24.654,25.173C-24.681,25.042 -24.654,24.906 -24.58,24.796L-22.535,21.743L-21.163,19.699C-21.156,19.688 -21.147,19.677 -21.139,19.666L-22.053,19.371C-22.279,19.298 -22.422,19.077 -22.397,18.842L-22.182,16.852C-22.155,16.603 -21.948,16.413 -21.698,16.406L-20.064,16.364L-20.007,15.928L-20.599,15.294C-20.711,15.174 -20.757,15.006 -20.721,14.846C-20.686,14.685 -20.574,14.552 -20.422,14.49L-19.073,13.94L-18.043,13.45L-17.047,12.665L-16.834,11.659C-16.799,11.495 -16.684,11.359 -16.527,11.298L-15.842,11.029C-15.688,10.968 -15.515,10.988 -15.378,11.081C-15.241,11.174 -15.16,11.329 -15.16,11.494L-15.16,12.144L-14.528,12.082C-14.63,12.04 -14.717,11.964 -14.773,11.865L-15.481,10.606L-16.236,11.091C-16.35,11.164 -16.489,11.188 -16.621,11.157C-16.753,11.125 -16.867,11.042 -16.936,10.925L-17.563,9.868C-17.637,9.743 -17.653,9.592 -17.607,9.455L-17.267,8.433C-17.244,8.364 -17.206,8.301 -17.156,8.248L-14.737,5.685C-14.71,5.657 -14.68,5.632 -14.647,5.611L-14.368,5.427C-15.829,5.036 -17.398,4.841 -19.073,4.841L-24.719,4.841L-25.12,6.166C-25.139,6.229 -25.17,6.287 -25.211,6.337L-26.634,8.08L-27.416,9.731L-27.459,9.874C-27.504,10.025 -27.618,10.146 -27.766,10.2C-27.913,10.254 -28.078,10.236 -28.21,10.15L-28.927,9.684C-29.081,9.584 -29.168,9.407 -29.153,9.223L-29.048,7.964L-29.082,7.092L-29.083,7.086C-29.083,7.086 -29.115,5.878 -29.118,5.622L-29.361,4.942L-29.387,4.895C-30.345,4.964 -31.262,5.101 -32.141,5.306L-31.543,5.631L-30.45,6.76L-31.615,6.921L-32.045,7.331L-31.883,8.635L-33.353,8.069L-35.665,7.477L-36.272,7.001ZM-5.471,36.28C-5.461,36.255 -5.45,36.231 -5.44,36.206C-4.854,34.805 -4.468,33.288 -4.28,31.654L-5.91,33.695L-5.471,36.28ZM-7.298,39.454C-6.816,38.823 -6.385,38.142 -6.004,37.411L-7.298,38.446L-7.298,39.454ZM-42.686,26.846L-42.686,29.269C-42.686,31.835 -42.256,34.146 -41.394,36.206C-40.534,38.264 -39.327,39.977 -37.775,41.345C-37.083,41.954 -36.333,42.478 -35.526,42.917C-35.204,43.08 -34.871,43.233 -34.528,43.376C-34.479,43.397 -34.43,43.417 -34.381,43.437L-33.796,37.56L-35.164,36.223C-35.184,36.203 -35.203,36.182 -35.219,36.16L-36.899,33.85C-36.985,33.732 -37.015,33.583 -36.982,33.441L-36.422,31.061C-36.419,31.052 -36.417,31.043 -36.414,31.034L-36.103,29.981L-36.222,29.948L-37.739,29.672C-37.836,29.655 -37.925,29.609 -37.996,29.541L-38.819,28.752L-40.256,27.609L-41.411,27.32C-41.43,27.316 -41.448,27.31 -41.465,27.304L-42.686,26.846ZM-18.9,19.229L-15.725,18.81C-15.478,18.778 -15.245,18.931 -15.178,19.171L-14.844,20.366L-12.903,21.176L-12.598,20.712C-12.492,20.549 -12.3,20.463 -12.108,20.491L-8.859,20.967C-8.755,20.982 -8.66,21.03 -8.585,21.102L-8.137,20.028L-9.89,20.04C-10.051,20.042 -10.203,19.965 -10.298,19.834L-10.961,18.92C-11.032,18.822 -11.065,18.702 -11.054,18.581L-11.039,18.409L-11.383,18.451L-11.316,18.892C-11.282,19.116 -11.403,19.335 -11.611,19.425C-11.818,19.516 -12.061,19.456 -12.202,19.279L-13.239,17.978L-13.424,17.798L-13.322,18.58C-13.295,18.788 -13.4,18.99 -13.586,19.087C-13.772,19.185 -13.998,19.156 -14.153,19.015L-15.677,17.635C-15.701,17.613 -15.723,17.589 -15.742,17.563L-16.1,17.083L-16.554,17.354C-16.619,17.392 -16.691,17.415 -16.765,17.422L-17.755,17.512L-18.349,18.161L-18.856,19.158C-18.868,19.183 -18.883,19.207 -18.9,19.229ZM-13.983,11.973L-13.264,11.816L-12.73,11.105C-12.697,11.06 -12.656,11.021 -12.61,10.99L-11.839,10.47C-11.754,10.413 -11.652,10.383 -11.549,10.385L-10.248,10.414L-10.193,10.292L-11.745,10.328C-11.968,10.333 -12.166,10.191 -12.234,9.979L-12.513,9.096L-12.602,10.226C-12.611,10.332 -12.653,10.432 -12.722,10.513L-13.959,11.946C-13.967,11.955 -13.975,11.964 -13.983,11.973ZM-22.013,8.583L-22.074,8.626L-22.366,8.721L-22.22,8.699L-24.083,9.268C-24.264,9.323 -24.462,9.271 -24.593,9.132L-25.483,8.187C-25.604,8.058 -25.648,7.873 -25.598,7.703C-25.548,7.533 -25.411,7.402 -25.238,7.359L-23.084,6.827C-22.891,6.779 -22.688,6.85 -22.568,7.008L-21.905,7.87C-21.789,8.021 -21.769,8.225 -21.853,8.396C-21.891,8.472 -21.946,8.536 -22.013,8.583ZM-20.962,13.892L-20.962,12.849L-21.086,11.899L-21.242,10.917C-21.277,10.698 -21.164,10.483 -20.964,10.387L-19.975,9.914C-19.825,9.842 -19.648,9.85 -19.505,9.935C-19.361,10.02 -19.269,10.17 -19.26,10.337L-19.197,11.456L-18.319,12.58C-18.23,12.695 -18.194,12.842 -18.222,12.984C-18.25,13.126 -18.338,13.25 -18.464,13.322L-20.213,14.325C-20.368,14.414 -20.558,14.414 -20.712,14.324C-20.867,14.235 -20.962,14.07 -20.962,13.892Z" style="fill:rgb(56,53,23);"/>
            </g>
        </g>
    </g>
</svg>
