<?xml version="1.0" encoding="UTF-8" standalone="no"?>
<!DOCTYPE svg PUBLIC "-//W3C//DTD SVG 1.1//EN" "http://www.w3.org/Graphics/SVG/1.1/DTD/svg11.dtd">
<svg width="100%" height="100%" viewBox="0 0 355 355" version="1.1" xmlns="http://www.w3.org/2000/svg" xmlns:xlink="http://www.w3.org/1999/xlink" xml:space="preserve" xmlns:serif="http://www.serif.com/" style="fill-rule:evenodd;clip-rule:evenodd;stroke-linejoin:round;stroke-miterlimit:2;">
    <g transform="matrix(1,0,0,1,-9400,-15697)">
        <g id="Mesa-de-trabajo10" serif:id="Mesa de trabajo10" transform="matrix(1,0,0,1,-0.348653,-0.825237)">
            <rect x="9400.349" y="15697.825" width="354.25" height="354.25" style="fill:none;"/>
            <g transform="matrix(7.474897,0,0,7.474897,9701.949202,15856.330662)">
                <path d="M-22.087,13.406C-23.601,13.065 -24.935,12.441 -26.09,11.535C-26.652,11.094 -27.157,10.599 -27.604,10.049C-27.715,9.921 -27.824,9.79 -27.929,9.656C-29.434,7.736 -30.187,5.338 -30.187,2.459L-30.187,-2.621C-30.187,-5.499 -29.434,-7.898 -27.929,-9.817C-27.734,-10.066 -27.529,-10.303 -27.313,-10.53C-26.941,-10.946 -26.534,-11.327 -26.09,-11.675C-24.236,-13.13 -21.919,-13.857 -19.138,-13.857L-14.231,-13.857C-11.451,-13.857 -9.133,-13.13 -7.279,-11.675C-7.218,-11.627 -7.157,-11.578 -7.096,-11.528C-6.454,-11.031 -5.881,-10.46 -5.376,-9.817C-3.871,-7.898 -3.118,-5.499 -3.118,-2.621L-3.118,2.459C-3.118,5.338 -3.871,7.736 -5.376,9.656C-5.776,10.165 -6.219,10.629 -6.705,11.047C-6.889,11.217 -7.081,11.379 -7.279,11.535C-8.413,12.424 -9.719,13.042 -11.199,13.387L-16.651,18.838L-16.652,18.837L-16.654,18.838L-22.087,13.406ZM-11.435,10.65C-11.112,10.558 -10.799,10.449 -10.496,10.322C-10.125,10.167 -9.775,9.991 -9.445,9.794C-9.166,9.613 -8.901,9.412 -8.649,9.19C-7.784,8.428 -7.111,7.473 -6.632,6.326C-6.152,5.177 -5.912,3.889 -5.912,2.459L-5.912,-2.621C-5.912,-4.032 -6.152,-5.311 -6.632,-6.459C-7.111,-7.606 -7.784,-8.561 -8.649,-9.323C-8.845,-9.495 -9.049,-9.655 -9.261,-9.803C-9.651,-10.054 -10.072,-10.274 -10.524,-10.462C-11.632,-10.926 -12.868,-11.158 -14.231,-11.158L-19.138,-11.158C-20.426,-11.158 -21.596,-10.956 -22.647,-10.553C-23.392,-10.256 -24.062,-9.846 -24.656,-9.323C-25.521,-8.561 -26.194,-7.606 -26.673,-6.459C-27.153,-5.311 -27.393,-4.032 -27.393,-2.621L-27.393,2.459C-27.393,3.889 -27.153,5.177 -26.673,6.326C-26.194,7.473 -25.521,8.428 -24.656,9.19C-24.27,9.53 -23.852,9.822 -23.402,10.066C-23.222,10.157 -23.037,10.242 -22.846,10.322C-22.534,10.453 -22.211,10.565 -21.879,10.659C-21.555,10.75 -21.222,10.824 -20.879,10.881L-16.652,15.107L-12.417,10.872C-12.08,10.814 -11.752,10.741 -11.435,10.65ZM-20.394,0C-20.394,-1.792 -20.051,-3.157 -19.367,-4.096C-18.682,-5.035 -17.786,-5.504 -16.677,-5.504C-15.536,-5.504 -14.623,-5.035 -13.938,-4.096C-13.254,-3.157 -12.911,-1.792 -12.911,0C-12.911,1.792 -13.254,3.157 -13.938,4.097C-14.623,5.035 -15.536,5.504 -16.677,5.504C-17.786,5.504 -18.682,5.035 -19.367,4.097C-20.051,3.157 -20.394,1.792 -20.394,0Z" style="fill:rgb(56,53,23);"/>
            </g>
        </g>
    </g>
</svg>
