<?xml version="1.0" encoding="UTF-8" standalone="no"?>
<!DOCTYPE svg PUBLIC "-//W3C//DTD SVG 1.1//EN" "http://www.w3.org/Graphics/SVG/1.1/DTD/svg11.dtd">
<svg width="100%" height="100%" viewBox="0 0 355 355" version="1.1" xmlns="http://www.w3.org/2000/svg" xmlns:xlink="http://www.w3.org/1999/xlink" xml:space="preserve" xmlns:serif="http://www.serif.com/" style="fill-rule:evenodd;clip-rule:evenodd;stroke-linejoin:round;stroke-miterlimit:2;">
    <g transform="matrix(1,0,0,1,-9400,-15697)">
        <g id="Mesa-de-trabajo10" serif:id="Mesa de trabajo10" transform="matrix(1,0,0,1,-0.348653,-0.825237)">
            <rect x="9400.349" y="15697.825" width="354.25" height="354.25" style="fill:none;"/>
            <g transform="matrix(4.166667,0,0,4.166667,9675.045365,15771.897538)">
                <path d="M-43.064,42.886C-43.263,42.657 -43.458,42.421 -43.647,42.18C-46.348,38.737 -47.698,34.434 -47.698,29.269L-47.698,20.157C-47.698,14.993 -46.348,10.69 -43.647,7.247C-43.297,6.801 -42.929,6.375 -42.542,5.968C-41.875,5.222 -41.144,4.537 -40.348,3.913C-37.022,1.304 -32.865,0 -27.876,0L-19.073,0C-14.085,0 -9.928,1.304 -6.602,3.913C-6.491,4 -6.382,4.088 -6.274,4.177C-5.122,5.07 -4.093,6.093 -3.188,7.247C-0.487,10.69 0.863,14.993 0.863,20.157L0.863,29.269C0.863,34.434 -0.487,38.737 -3.188,42.18C-3.905,43.094 -4.699,43.927 -5.571,44.677C-5.902,44.981 -6.245,45.273 -6.602,45.552C-9.928,48.161 -14.085,49.465 -19.074,49.465L-27.877,49.465C-32.865,49.465 -37.022,48.161 -40.348,45.552C-41.357,44.761 -42.262,43.872 -43.064,42.886ZM-39.953,10.6C-40.51,11.414 -40.99,12.305 -41.394,13.272C-42.256,15.33 -42.686,17.626 -42.686,20.157L-42.686,29.269C-42.686,31.835 -42.256,34.146 -41.394,36.206C-40.534,38.264 -39.327,39.977 -37.775,41.345C-37.083,41.954 -36.333,42.478 -35.526,42.917C-35.204,43.08 -34.871,43.233 -34.528,43.376C-32.54,44.208 -30.322,44.624 -27.877,44.624L-19.074,44.624C-16.596,44.624 -14.363,44.208 -12.373,43.376C-11.707,43.098 -11.079,42.782 -10.487,42.428C-9.987,42.104 -9.511,41.742 -9.059,41.345C-7.507,39.977 -6.3,38.264 -5.44,36.206C-4.579,34.146 -4.148,31.835 -4.148,29.269L-4.148,20.157C-4.148,17.626 -4.579,15.33 -5.44,13.272C-5.844,12.305 -6.325,11.414 -6.881,10.6L-23.414,27.133L-23.417,27.129L-23.421,27.133L-39.953,10.6ZM-10.214,7.236C-10.897,6.801 -11.633,6.419 -12.422,6.089C-14.41,5.257 -16.628,4.841 -19.073,4.841L-27.876,4.841C-30.187,4.841 -32.285,5.203 -34.171,5.926C-35.046,6.275 -35.863,6.711 -36.623,7.234L-23.417,20.439L-10.214,7.236Z" style="fill:rgb(56,53,23);"/>
            </g>
        </g>
    </g>
</svg>
