<?xml version="1.0" encoding="UTF-8" standalone="no"?>
<!DOCTYPE svg PUBLIC "-//W3C//DTD SVG 1.1//EN" "http://www.w3.org/Graphics/SVG/1.1/DTD/svg11.dtd">
<svg width="100%" height="100%" viewBox="0 0 355 355" version="1.1" xmlns="http://www.w3.org/2000/svg" xmlns:xlink="http://www.w3.org/1999/xlink" xml:space="preserve" xmlns:serif="http://www.serif.com/" style="fill-rule:evenodd;clip-rule:evenodd;stroke-linejoin:round;stroke-miterlimit:2;">
    <g transform="matrix(1,0,0,1,-9400,-15697)">
        <g id="Mesa-de-trabajo10" serif:id="Mesa de trabajo10" transform="matrix(1,0,0,1,-0.348653,-0.825237)">
            <rect x="9400.349" y="15697.825" width="354.25" height="354.25" style="fill:none;"/>
            <g transform="matrix(0,6.440407,-6.440407,0,9477.627877,16067.584884)">
                <path d="M-16.642,-5.504C-15.517,-5.494 -14.616,-5.025 -13.938,-4.096C-13.254,-3.157 -12.911,-1.792 -12.911,0C-12.911,1.792 -13.254,3.157 -13.938,4.097C-14.623,5.035 -15.536,5.504 -16.677,5.504C-17.786,5.504 -18.682,5.035 -19.367,4.097C-20.051,3.157 -20.394,1.792 -20.394,-0C-20.394,-0.948 -20.298,-1.777 -20.106,-2.487L-39.234,-2.487C-42.292,-3.183 -44.665,-4.607 -46.352,-6.758C-48.04,-8.91 -48.884,-11.599 -48.884,-14.827L-48.884,-20.522C-48.884,-23.749 -48.04,-26.438 -46.352,-28.59C-44.665,-30.741 -42.292,-32.165 -39.234,-32.861L-18.703,-32.861C-18.55,-32.881 -18.392,-32.892 -18.23,-32.892C-17.089,-32.892 -16.176,-32.423 -15.491,-31.484C-14.807,-30.545 -14.464,-29.18 -14.464,-27.388C-14.464,-25.596 -14.807,-24.231 -15.491,-23.291C-16.176,-22.353 -17.089,-21.884 -18.23,-21.884C-19.339,-21.884 -20.235,-22.353 -20.92,-23.291C-21.604,-24.231 -21.947,-25.596 -21.947,-27.388C-21.947,-28.302 -21.857,-29.106 -21.679,-29.798L-39.234,-29.798L-39.234,-29.792C-40.563,-29.476 -41.712,-28.89 -42.683,-28.036C-43.652,-27.182 -44.407,-26.112 -44.944,-24.825C-45.483,-23.539 -45.752,-22.104 -45.752,-20.522L-45.752,-14.827C-45.752,-13.224 -45.483,-11.779 -44.944,-10.492C-44.407,-9.205 -43.652,-8.135 -42.683,-7.28C-41.712,-6.426 -40.563,-5.841 -39.234,-5.524L-39.234,-5.52L-16.642,-5.52L-16.642,-5.504Z" style="fill:rgb(56,53,23);"/>
            </g>
        </g>
    </g>
</svg>
