<?xml version="1.0" encoding="UTF-8" standalone="no"?>
<!DOCTYPE svg PUBLIC "-//W3C//DTD SVG 1.1//EN" "http://www.w3.org/Graphics/SVG/1.1/DTD/svg11.dtd">
<svg width="100%" height="100%" viewBox="0 0 355 355" version="1.1" xmlns="http://www.w3.org/2000/svg" xmlns:xlink="http://www.w3.org/1999/xlink" xml:space="preserve" xmlns:serif="http://www.serif.com/" style="fill-rule:evenodd;clip-rule:evenodd;stroke-linejoin:round;stroke-miterlimit:2;">
    <g transform="matrix(1,0,0,1,-9400,-15697)">
        <g id="Mesa-de-trabajo10" serif:id="Mesa de trabajo10" transform="matrix(1,0,0,1,-0.348653,-0.825237)">
            <rect x="9400.349" y="15697.825" width="354.25" height="354.25" style="fill:none;"/>
            <g transform="matrix(0,5.148058,-5.148058,0,9577.473476,15876.493342)">
                <path d="M-16.571,-5.503C-16.286,-8.71 -15.258,-11.444 -13.485,-13.703C-12.845,-14.52 -12.126,-15.252 -11.328,-15.901L-11.236,-15.98C-11.079,-16.114 -10.919,-16.245 -10.756,-16.373C-7.97,-18.559 -4.487,-19.652 -0.307,-19.652L8.354,-19.652L8.354,-19.616C9.71,-19.539 10.988,-19.339 12.187,-19.016L12.187,19.016C10.988,19.339 9.71,19.539 8.354,19.616C7.933,19.64 7.505,19.652 7.069,19.652L-0.307,19.652C-4.487,19.652 -7.97,18.559 -10.756,16.373C-10.984,16.194 -11.206,16.01 -11.421,15.819C-11.905,15.391 -12.357,14.932 -12.777,14.444C-13.023,14.176 -13.259,13.898 -13.485,13.61C-15.241,11.372 -16.266,8.67 -16.562,5.502C-16.6,5.503 -16.639,5.504 -16.677,5.504C-17.786,5.504 -18.682,5.035 -19.367,4.097C-20.051,3.157 -20.394,1.792 -20.394,0C-20.394,-1.792 -20.051,-3.157 -19.367,-4.096C-18.682,-5.035 -17.786,-5.504 -16.677,-5.504C-16.641,-5.504 -16.606,-5.504 -16.571,-5.503ZM8.354,-15.548C7.934,-15.58 7.506,-15.596 7.069,-15.596L-0.307,-15.596C-2.383,-15.596 -4.254,-15.247 -5.921,-14.55C-7.587,-13.854 -8.973,-12.877 -10.08,-11.621C-10.573,-11.06 -10.998,-10.454 -11.352,-9.801C-11.484,-9.539 -11.608,-9.27 -11.724,-8.993C-12.398,-7.384 -12.734,-5.588 -12.734,-3.61L-12.734,3.515C-12.734,5.521 -12.398,7.328 -11.724,8.939C-11.499,9.478 -11.243,9.987 -10.957,10.465C-10.694,10.87 -10.402,11.255 -10.08,11.621C-8.973,12.877 -7.587,13.854 -5.921,14.55C-4.254,15.247 -2.383,15.596 -0.307,15.596L7.069,15.596C7.506,15.596 7.934,15.58 8.354,15.548L8.354,-15.548ZM14.467,-7.837C16.075,-7.828 17.364,-7.16 18.332,-5.832C19.306,-4.495 19.794,-2.552 19.794,-0C19.794,2.552 19.306,4.495 18.332,5.834C17.364,7.16 16.075,7.828 14.467,7.837L14.467,-7.837Z" style="fill:rgb(56,53,23);"/>
            </g>
        </g>
    </g>
</svg>
