<?xml version="1.0" encoding="UTF-8" standalone="no"?>
<!DOCTYPE svg PUBLIC "-//W3C//DTD SVG 1.1//EN" "http://www.w3.org/Graphics/SVG/1.1/DTD/svg11.dtd">
<svg width="100%" height="100%" viewBox="0 0 355 355" version="1.1" xmlns="http://www.w3.org/2000/svg" xmlns:xlink="http://www.w3.org/1999/xlink" xml:space="preserve" xmlns:serif="http://www.serif.com/" style="fill-rule:evenodd;clip-rule:evenodd;stroke-linejoin:round;stroke-miterlimit:2;">
    <g transform="matrix(1,0,0,1,-9400,-15697)">
        <g id="Mesa-de-trabajo10" serif:id="Mesa de trabajo10" transform="matrix(1,0,0,1,-0.348653,-0.825237)">
            <rect x="9400.349" y="15697.825" width="354.25" height="354.25" style="fill:none;"/>
            <g transform="matrix(5.667973,0,0,5.667973,9586.24482,15825.626366)">
                <path d="M-18.393,5.03C-18.755,4.802 -19.08,4.491 -19.367,4.097C-20.051,3.157 -20.394,1.792 -20.394,0C-20.394,-1.792 -20.051,-3.157 -19.367,-4.096C-19.08,-4.49 -18.755,-4.801 -18.393,-5.03L-18.393,-10.482L-14.912,-10.482L-14.912,-5.024C-14.548,-4.796 -14.223,-4.487 -13.938,-4.096C-13.254,-3.157 -12.911,-1.792 -12.911,0C-12.911,1.792 -13.254,3.157 -13.938,4.097C-14.223,4.487 -14.548,4.797 -14.912,5.025L-14.912,27.886L-18.393,27.886L-18.393,5.03ZM-4.104,22.996C-4.466,22.768 -4.791,22.457 -5.078,22.063C-5.762,21.123 -6.105,19.758 -6.105,17.966C-6.105,16.174 -5.762,14.809 -5.078,13.87C-4.791,13.476 -4.466,13.165 -4.104,12.936L-4.104,-10.482L-0.623,-10.482L-0.623,12.942C-0.259,13.17 0.066,13.479 0.351,13.87C1.035,14.809 1.378,16.174 1.378,17.966C1.378,19.758 1.035,21.123 0.351,22.063C0.066,22.454 -0.259,22.763 -0.623,22.991L-0.623,27.886L-4.104,27.886L-4.104,22.996ZM11.817,10.534C11.455,10.306 11.13,9.995 10.843,9.601C10.159,8.661 9.816,7.296 9.816,5.504C9.816,3.712 10.159,2.347 10.843,1.408C11.13,1.014 11.455,0.703 11.817,0.474L11.817,-10.482L15.298,-10.482L15.298,0.48C15.662,0.708 15.987,1.017 16.272,1.408C16.956,2.347 17.299,3.712 17.299,5.504C17.299,7.296 16.956,8.661 16.272,9.601C15.987,9.991 15.662,10.301 15.298,10.529L15.298,27.886L11.817,27.886L11.817,10.534Z" style="fill:rgb(56,53,23);"/>
            </g>
        </g>
    </g>
</svg>
