<?xml version="1.0" encoding="UTF-8" standalone="no"?>
<!DOCTYPE svg PUBLIC "-//W3C//DTD SVG 1.1//EN" "http://www.w3.org/Graphics/SVG/1.1/DTD/svg11.dtd">
<svg width="100%" height="100%" viewBox="0 0 267 248" version="1.1" xmlns="http://www.w3.org/2000/svg" xmlns:xlink="http://www.w3.org/1999/xlink" xml:space="preserve" xmlns:serif="http://www.serif.com/" style="fill-rule:evenodd;clip-rule:evenodd;stroke-linejoin:round;stroke-miterlimit:2;">
    <g transform="matrix(1,0,0,1,-1914.773191,-17659.607757)">
        <g id="Mesa-de-trabajo12" serif:id="Mesa de trabajo12" transform="matrix(0.578434,0,0,0.554312,1914.773191,7961.001329)">
            <rect x="0" y="17496.65" width="460.139" height="447.159" style="fill:none;"/>
            <g transform="matrix(2.822329,0,0,2.714869,-19224.018493,-14926.881378)">
                <g transform="matrix(3.334642,0,0,3.617491,6914.667203,12026.281834)">
                    <path d="M0,0C0,-1.792 0.342,-3.157 1.027,-4.096C1.712,-5.035 2.624,-5.504 3.766,-5.504C4.874,-5.504 5.771,-5.035 6.456,-4.096C7.141,-3.157 7.483,-1.792 7.483,0C7.483,1.792 7.141,3.157 6.456,4.097C5.771,5.035 4.874,5.504 3.766,5.504C2.624,5.504 1.712,5.035 1.027,4.097C0.342,3.157 0,1.792 0,0M-20.394,0C-20.394,-1.792 -20.051,-3.157 -19.367,-4.096C-18.682,-5.035 -17.786,-5.504 -16.677,-5.504C-15.536,-5.504 -14.623,-5.035 -13.938,-4.096C-13.254,-3.157 -12.911,-1.792 -12.911,0C-12.911,1.792 -13.254,3.157 -13.938,4.097C-14.623,5.035 -15.536,5.504 -16.677,5.504C-17.786,5.504 -18.682,5.035 -19.367,4.097C-20.051,3.157 -20.394,1.792 -20.394,0" style="fill:rgb(56,53,23);fill-rule:nonzero;"/>
                </g>
                <g transform="matrix(3.334642,0,0,3.617491,6814.639292,12106.187862)">
                    <path d="M0,-14.916L4.744,-14.916C5.233,-12.862 6.138,-11.085 7.458,-9.585C8.779,-8.086 10.433,-6.92 12.422,-6.089C14.41,-5.257 16.628,-4.841 19.073,-4.841L27.876,-4.841C30.354,-4.841 32.587,-5.257 34.577,-6.089C36.565,-6.92 38.22,-8.086 39.541,-9.585C40.861,-11.085 41.766,-12.862 42.255,-14.916L46.95,-14.916C45.874,-10.189 43.673,-6.521 40.348,-3.913C37.022,-1.304 32.865,0 27.876,0L19.073,0C14.085,0 9.928,-1.304 6.602,-3.913C3.277,-6.521 1.076,-10.189 0,-14.916" style="fill:rgb(56,53,23);fill-rule:nonzero;"/>
                </g>
                <g transform="matrix(3.334642,0,0,3.617491,6971.200715,11944.412594)">
                    <path d="M0,14.916L-4.744,14.916C-5.233,12.862 -6.138,11.085 -7.458,9.585C-8.779,8.086 -10.433,6.92 -12.422,6.089C-14.41,5.257 -16.628,4.841 -19.073,4.841L-27.876,4.841C-30.354,4.841 -32.587,5.257 -34.577,6.089C-36.565,6.92 -38.22,8.086 -39.541,9.585C-40.861,11.085 -41.766,12.862 -42.255,14.916L-46.95,14.916C-45.874,10.189 -43.673,6.521 -40.348,3.913C-37.022,1.304 -32.865,0 -27.876,0L-19.073,0C-14.085,0 -9.928,1.304 -6.602,3.913C-3.277,6.521 -1.076,10.189 0,14.916" style="fill:rgb(56,53,23);fill-rule:nonzero;"/>
                </g>
            </g>
        </g>
    </g>
</svg>
